<?xml version="1.0" encoding="utf-8"?>
<!-- Generator: Adobe Illustrator 25.0.1, SVG Export Plug-In . SVG Version: 6.00 Build 0)  -->
<svg version="1.1" xmlns="http://www.w3.org/2000/svg" xmlns:xlink="http://www.w3.org/1999/xlink" x="0px" y="0px"
	 viewBox="0 0 225 76" style="enable-background:new 0 0 225 76;" xml:space="preserve">
<style type="text/css">
	.st0{display:none;}
	.st1{display:inline;}
	.st2{fill-rule:evenodd;clip-rule:evenodd;fill:#005030;}
	.st3{fill-rule:evenodd;clip-rule:evenodd;fill:#00462D;}
	.st4{fill-rule:evenodd;clip-rule:evenodd;fill:#FFFFFF;}
	.st5{fill-rule:evenodd;clip-rule:evenodd;fill:#F47321;}
	.st6{fill-rule:evenodd;clip-rule:evenodd;fill:none;}
	.st7{fill:#F47321;}
	.st8{font-family:'ITCGaramondStd-BkNarrow';}
	.st9{font-size:18px;}
	.st10{display:none;fill:#005030;}
	.st11{font-family:'MerriweatherSans-ExtraBold';}
	.st12{font-size:13.6905px;}
	.st13{fill:#005030;}
	.st14{display:inline;fill-rule:evenodd;clip-rule:evenodd;fill:#005030;}
</style>
<g id="Layer_1" class="st0">
	<g class="st1">
		<path class="st2" d="M93,27.8c-0.5,0-0.6,0.3-0.6,0.9v17.1c0,1.9,0.7,2.6,1.9,2.8c1,0.3,2,0.4,2,1.3c0,0.6-0.3,1-1.4,1
			c-1.2,0-2-0.3-5.7-0.3c-3.9,0-4.9,0.3-6.3,0.3c-0.8,0-1.2-0.3-1.2-1.2c0-0.4,0.4-0.9,1.1-1c2.6-0.5,2.9-1.1,2.9-3.1V10.2
			c0-1.9-0.6-2.1-1.4-2.5c-1.9-0.6-2.4-0.3-2.4-1.1c0-0.6,0.3-0.9,1.5-0.9s3.7,0.3,5.8,0.3c2.1,0,4.1-0.3,5.4-0.3
			c1.3,0,1.6,0.3,1.6,1c0,1-0.7,1-2.1,1.3c-0.9,0.1-1.7,0.6-1.7,2v14.8c0,0.6,0.1,0.9,0.7,0.9h12.7c0.6,0,0.6-0.2,0.6-1V10.4
			c0-1.9-0.6-2.4-1.8-2.7c-1.4-0.2-2.1-0.3-2.1-1c0-0.8,0.6-1.1,1.6-1.1c1.4,0,2.9,0.3,5.7,0.3c3.7,0,4.7-0.3,6.1-0.3
			c0.9,0,1.2,0.3,1.2,0.9c0,0.9-1,1.2-2.6,1.4C113.6,8,113,8.6,113,9.5v36.2c0,1.6,0.5,2.5,1.3,2.9c1.3,0.6,2.6,0.5,2.6,1.4
			c0,0.5-0.2,0.9-1.4,0.9c-1.2,0-3-0.3-5.9-0.3c-3,0-4,0.3-5.2,0.3c-1.6,0-1.9-0.3-1.9-1.1c0-0.6,0.4-0.8,2-1.1
			c1.4-0.3,1.8-1,1.8-2.9v-17c0-0.6-0.1-0.9-0.6-0.9L93,27.8"/>
		<path class="st2" d="M121.5,29.2c0,1.4,0.2,1.7,2.7,1.7c1.4,0,2.5-0.1,3.5-0.3c2.1-0.3,3.6-0.9,3.9-1.4c0.6-0.6,0.8-1.4,0.8-3
			c0-4.2-1.9-6.8-4.7-6.8C124.1,19.5,121.5,24.2,121.5,29.2L121.5,29.2L121.5,29.2z M123.1,33.2c-1.3,0-1.8,0.5-1.8,1.6
			c0,7.3,3.1,13.1,8.1,13.1c3.3,0,5.2-1.6,6.2-4.1c0.6-1.3,0.7-2.2,1.3-2.2c0.4,0,0.7,0.2,0.7,1c0,1.1-0.4,2.4-1,3.6
			c-1.4,3.1-4.7,5.3-8.8,5.3c-8.1,0-12.9-6.8-12.9-16.3c0-11.8,6-17.8,12.9-17.8c5.7,0,9.9,4.3,9.9,11.5c0,4-0.1,4.3-2.1,4.3H123.1
			L123.1,33.2z M145.5,43.9c0,2.6,1.4,4,3.4,4c1.5,0,2.8-0.9,4.1-2.1c1.3-1.3,1.8-2.2,1.8-4v-7.9c0-0.8-0.1-0.9-0.5-0.9
			c-0.4,0-0.7,0.1-1.6,0.8c-1.5,1-2.9,2.2-4,3.4C146.7,39.1,145.5,41.3,145.5,43.9C145.5,43.8,145.5,43.9,145.5,43.9z M154.8,23.8
			c0-3.4-0.9-4.4-2.8-4.4c-3.3,0-4.9,2.6-5.9,6.1c-0.5,1.6-1.4,2.8-2.4,3.6c-0.9,0.6-1.8,1-2.9,1c-1.4,0-2-0.5-2-1.9
			c0-4.2,6.1-10.8,14.8-10.8c2.7,0,4.4,0.4,5.5,1.3c1.1,0.9,1.6,2.3,1.6,4.2v21.4c0,1.8,0.6,2.6,1.9,2.6c1.3,0,1.9-0.6,2.1-1.4
			c0.4-0.7,0.5-1.4,1-1.4c0.4,0,0.6,0.4,0.6,1.2c0,1.6-2,6-6.4,6c-3.1,0-3.9-2.4-4.4-3.9c-0.2-0.6-0.4-1-0.8-1
			c-0.6,0-1.6,1.4-3.4,2.6c-1.6,1.3-3.7,2.4-6.6,2.4c-3.3,0-5.7-2.3-5.7-6.5c0-3.6,1.9-6.1,7.9-10c2.4-1.6,4.1-2.6,5.2-3.4
			c1.9-1.1,2.4-1.9,2.4-3.4L154.8,23.8L154.8,23.8z"/>
		<path class="st2" d="M168.7,7.3c0-1.4-0.4-1.8-1.9-2.1c-1.3-0.3-1.6-0.4-1.6-1c0-0.6,0.3-0.8,1.3-1.1c2.9-0.9,4.8-1.6,6.1-2.2
			c1-0.5,1.4-0.7,1.7-0.7c0.4,0,0.5,0.4,0.5,1.4v44.7c0,1.8,0.7,1.9,2.9,2.5c0.8,0.2,1.4,0.4,1.4,1.1c0,0.6-0.5,0.9-1.1,0.9
			c-0.7,0-1.5-0.3-6.2-0.3c-4.4,0-5.1,0.3-5.9,0.3c-0.5,0-1.1-0.2-1.1-0.9c0-0.6,0.6-0.9,1.2-1.1c2.4-0.4,2.8-1.1,2.8-2.9L168.7,7.3
			 M186.5,44.4c0,2.6,0.9,3.2,2.2,3.2c1.3,0,2.1-1,2.6-1.9c0.6-0.9,0.9-1.9,1.6-1.9c0.4,0,0.7,0.2,0.7,0.7c0,0.9-1.4,6.8-7.2,6.8
			c-1.9,0-3.4-0.5-4.4-1.6c-1.1-1.1-1.6-2.8-1.6-5.1V21.9c0-0.6-0.4-0.9-0.8-1.1c-0.4-0.1-1.1-0.1-1.6-0.1c-0.6-0.1-1.1-0.1-1.1-0.9
			c0-0.4,0.4-0.9,1.4-1.9c2-1.8,3.6-3.7,6.1-8c0.7-1.3,0.9-1.7,1.4-1.7c0.4,0,0.7,0.1,0.7,1.6v6.9c0,1.1,0.4,1.6,1.4,1.6h3.2
			c1.2,0,1.6,0.2,1.6,1.2c0,1.1-0.3,1.5-1.7,1.5h-3.4c-0.9,0-1.1,0.3-1.1,1.4L186.5,44.4"/>
		<path class="st2" d="M196.8,7.3c0-1.4-0.4-1.8-1.9-2.1c-1.3-0.3-1.7-0.4-1.7-1c0-0.7,0.5-0.8,2-1.2c3-1,4.6-1.7,5.6-2.1
			c0.9-0.4,1.2-0.6,1.6-0.6c0.3,0,0.4,0.3,0.4,1.3v20.3c0,0.4,0.1,0.6,0.4,0.6c0.3,0,0.6-0.2,0.9-0.4c1.6-1.4,4.3-4.3,8.4-4.3
			c4.5,0,8.1,2.9,8.3,8.6v19.5c0,2.1,0.8,2.9,2.2,3.1c1.2,0.2,1.6,0.4,1.6,1c0,0.6-0.5,0.9-1.1,0.9c-0.4,0-2.3-0.3-5.6-0.3
			c-3.8,0-4.6,0.3-5.4,0.3c-0.9,0-1.3-0.2-1.3-0.9c0-0.6,0.4-0.7,1.1-0.9c1.6-0.4,2.4-0.9,2.4-2.4V27.2c0-1.7-0.4-3.1-1.2-4
			c-0.9-1.1-2.3-1.7-4.1-1.7c-1.6,0-3.4,0.7-4.6,1.8c-1.2,1.1-2,2.5-2,4.1v19c0,1.6,0.8,2.4,2.8,2.8c1.1,0.2,1.3,0.4,1.3,0.9
			c0,0.6-0.5,0.9-1.1,0.9c-0.6,0-1.3-0.3-6.2-0.3c-3.7,0-4.4,0.3-5.4,0.3c-0.6,0-1.1-0.3-1.1-0.9c0-0.6,0.5-0.9,1.1-1.1
			c2.1-0.2,2.6-0.9,2.6-3.5L196.8,7.3 M1.4,64.8h2.4v6.8c0,1,0.4,1.6,1.3,1.6c1,0,1.3-0.6,1.3-1.6v-6.8h2.4v6.4
			c0,2.5-1.4,3.8-3.7,3.8c-2.3,0-3.7-1.3-3.7-3.8L1.4,64.8 M9.5,64.8h2.8l2.9,7h0v-7h2.1v10.1h-2.8l-2.9-7.3h0v7.3H9.5V64.8
			 M18.3,74.9h2.4V64.8h-2.4V74.9z M21,64.8h2.6l1.8,7.4h0l1.8-7.4h2.4l-3.1,10.1H24L21,64.8 M30,64.8h5.9v1.8h-3.6v2.3h3.4v1.8
			h-3.4v2.6H36v1.8h-6V64.8 M38.8,69.1h0.7c0.9,0,1.4-0.6,1.4-1.3c0-0.4-0.1-1.3-1.4-1.3h-0.7V69.1z M36.5,64.8h3.7
			c1.7,0,3.1,0.7,3.1,2.6c0,0.4-0.1,2.1-2,2.5v0c0.7,0.1,1,0.5,1.4,1.7l1,3.3h-2.5l-0.8-2.7c-0.4-1.4-0.7-1.4-1.6-1.4v4.1h-2.4
			L36.5,64.8L36.5,64.8z M49.6,66.8c-0.6-0.3-1.4-0.5-2-0.5c-0.8,0-1.4,0.3-1.4,1.1c0,1.8,4,1,4,4.6c0,1.9-1.5,3.1-3.5,3.1
			c-1.2,0-2.3-0.3-2.7-0.4l0.1-2c0.7,0.3,1.3,0.6,2.2,0.6c0.8,0,1.5-0.4,1.5-1.2c0-2-4-1-4-4.6c0-0.3,0.1-2.9,3.5-2.9
			c0.9,0,1.5,0.2,2.4,0.3L49.6,66.8 M50.9,74.9h2.4V64.8h-2.4V74.9z M56,66.6h-2.2v-1.8h6.8v1.8h-2.2v8.3H56V66.6"/>
		<path class="st2" d="M63.2,71l-3.1-6.2h2.7l1.6,3.9l1.5-3.9h2.7l-3.1,6.3v3.8h-2.4L63.2,71 M75.4,73.3c1.4,0,1.9-1.6,1.9-3.5
			s-0.5-3.5-1.9-3.5s-1.9,1.6-1.9,3.5S74,73.3,75.4,73.3z M75.4,64.6c2.9,0,4.3,2.3,4.3,5.2c0,3-1.4,5.2-4.3,5.2
			c-2.9,0-4.3-2.3-4.3-5.2C71.1,66.9,72.4,64.6,75.4,64.6z M80.3,64.8h5.6v1.8h-3.3v2.3h3.2v1.8h-3.2v4.2h-2.3V64.8 M97.9,66.9
			L97.9,66.9l-2.3,8H94l-2.2-8h0v8h-2.2V64.8h3.6l1.6,6.5h0l1.8-6.5h3.4v10.1h-2.2L97.9,66.9 M101.2,74.9h2.4V64.8h-2.4L101.2,74.9z
			 M108.6,66.7L108.6,66.7l-1.2,4.2h2.3L108.6,66.7z M110.1,72.6h-3.2l-0.7,2.3H104l3.4-10.1h2.6l3.3,10.1h-2.4L110.1,72.6
			L110.1,72.6z M121.8,66.9L121.8,66.9l-2.3,8h-1.6l-2.2-8h0v8h-2.2V64.8h3.6l1.6,6.5h0l1.8-6.5h3.4v10.1h-2.2V66.9 M125.2,74.9h2.4
			V64.8h-2.4V74.9z M137.2,70.7h-2.5v4.2h-2.4V64.8h2.4v4h2.5v-4h2.4v10.1h-2.4L137.2,70.7 M140.5,64.8h5.9v1.8h-3.6v2.3h3.4v1.8
			h-3.4v2.6h3.7v1.8h-6V64.8"/>
		<path class="st2" d="M151.1,66.7L151.1,66.7l-1.2,4.2h2.3L151.1,66.7L151.1,66.7z M152.6,72.6h-3.2l-0.7,2.3h-2.3l3.4-10.1h2.6
			l3.3,10.1h-2.4L152.6,72.6L152.6,72.6z M156,64.8h2.4v8.3h3.4v1.8H156L156,64.8 M162.9,66.6h-2.2v-1.8h6.8v1.8h-2.2v8.3h-2.4
			L162.9,66.6"/>
		<path class="st3" d="M172.8,70.7h-2.5v4.2h-2.4V64.8h2.4v4h2.5v-4h2.4v10.1h-2.4V70.7 M184.9,66.8c-0.6-0.3-1.4-0.5-2-0.5
			c-0.8,0-1.4,0.3-1.4,1.1c0,1.8,4,1,4,4.6c0,1.9-1.5,3.1-3.5,3.1c-1.2,0-2.3-0.3-2.7-0.4l0.1-2c0.7,0.3,1.3,0.6,2.2,0.6
			c0.8,0,1.5-0.4,1.5-1.2c0-2-4-1-4-4.6c0-0.3,0.1-2.9,3.5-2.9c0.9,0,1.5,0.2,2.4,0.3L184.9,66.8 M188.3,71l-3.1-6.2h2.7l1.6,3.9
			l1.5-3.9h2.7l-3.1,6.3v3.8h-2.4V71 M199.3,66.8c-0.6-0.3-1.4-0.5-2-0.5c-0.8,0-1.4,0.3-1.4,1.1c0,1.8,4,1,4,4.6
			c0,1.9-1.5,3.1-3.5,3.1c-1.2,0-2.3-0.3-2.7-0.4l0.1-2c0.7,0.3,1.3,0.6,2.2,0.6c0.8,0,1.5-0.4,1.5-1.2c0-2-4-1-4-4.6
			c0-0.3,0.1-2.9,3.5-2.9c0.9,0,1.5,0.2,2.4,0.3L199.3,66.8"/>
		<path class="st2" d="M202.1,66.6h-2.2v-1.8h6.8v1.8h-2.2v8.3h-2.4L202.1,66.6 M207.1,64.8h5.9v1.8h-3.6v2.3h3.4v1.8h-3.4v2.6h3.7
			v1.8h-6L207.1,64.8 M222.2,66.9L222.2,66.9l-2.3,8h-1.6l-2.2-8h0v8H214V64.8h3.6l1.6,6.5h0l1.8-6.5h3.4v10.1h-2.2V66.9 M1.5,58.5
			h223.1v-1.3H1.5V58.5z"/>
		<path class="st4" d="M57.3,4.4l0.1,32.7c0,2.1,0,8.5-16.1,8.5l-1.5,0l-1.5,0c-16.1,0-16.1-6.4-16.1-8.5l0.1-32.7H0L0,42
			c0,10.4,29.2,11.2,38.2,11.2h3c9,0,38.2-0.8,38.2-11.2l0-37.6L57.3,4.4"/>
		<path class="st2" d="M59,37.1L59,6h18.8l0,36c0,6.8-18.8,9.6-36.6,9.6c0-0.9,0-3,0-4.3C50.1,47.2,59,45.3,59,37.1"/>
		<path class="st5" d="M20.5,37.1l0-31.1H1.6l0,36c0,6.8,18.8,9.6,36.6,9.6c0-0.9,0-3,0-4.3C29.3,47.2,20.5,45.3,20.5,37.1"/>
	</g>
</g>
<g id="Layer_1_copy">
	<g>
		<path class="st2" d="M1.4,64.8h2.4v6.8c0,1,0.4,1.6,1.3,1.6c1,0,1.3-0.6,1.3-1.6v-6.8h2.4v6.4c0,2.5-1.4,3.8-3.7,3.8
			c-2.3,0-3.7-1.3-3.7-3.8L1.4,64.8 M9.5,64.8h2.8l2.9,7h0v-7h2.1v10.1h-2.8l-2.9-7.3h0v7.3H9.5V64.8 M18.3,74.9h2.4V64.8h-2.4V74.9
			z M21,64.8h2.6l1.8,7.4h0l1.8-7.4h2.4l-3.1,10.1H24L21,64.8 M30,64.8h5.9v1.8h-3.6v2.3h3.4v1.8h-3.4v2.6H36v1.8h-6V64.8
			 M38.8,69.1h0.7c0.9,0,1.4-0.6,1.4-1.3c0-0.4-0.1-1.3-1.4-1.3h-0.7V69.1z M36.5,64.8h3.7c1.7,0,3.1,0.7,3.1,2.6
			c0,0.4-0.1,2.1-2,2.5v0c0.7,0.1,1,0.5,1.4,1.7l1,3.3h-2.5l-0.8-2.7c-0.4-1.4-0.7-1.4-1.6-1.4v4.1h-2.4L36.5,64.8L36.5,64.8z
			 M49.6,66.8c-0.6-0.3-1.4-0.5-2-0.5c-0.8,0-1.4,0.3-1.4,1.1c0,1.8,4,1,4,4.6c0,1.9-1.5,3.1-3.5,3.1c-1.2,0-2.3-0.3-2.7-0.4l0.1-2
			c0.7,0.3,1.3,0.6,2.2,0.6c0.8,0,1.5-0.4,1.5-1.2c0-2-4-1-4-4.6c0-0.3,0.1-2.9,3.5-2.9c0.9,0,1.5,0.2,2.4,0.3L49.6,66.8 M50.9,74.9
			h2.4V64.8h-2.4V74.9z M56,66.6h-2.2v-1.8h6.8v1.8h-2.2v8.3H56V66.6"/>
		<path class="st2" d="M63.2,71l-3.1-6.2h2.7l1.6,3.9l1.5-3.9h2.7l-3.1,6.3v3.8h-2.4L63.2,71 M75.4,73.3c1.4,0,1.9-1.6,1.9-3.5
			s-0.5-3.5-1.9-3.5s-1.9,1.6-1.9,3.5S74,73.3,75.4,73.3z M75.4,64.6c2.9,0,4.3,2.3,4.3,5.2c0,3-1.4,5.2-4.3,5.2
			c-2.9,0-4.3-2.3-4.3-5.2C71.1,66.9,72.4,64.6,75.4,64.6z M80.3,64.8h5.6v1.8h-3.3v2.3h3.2v1.8h-3.2v4.2h-2.3V64.8 M97.9,66.9
			L97.9,66.9l-2.3,8H94l-2.2-8h0v8h-2.2V64.8h3.6l1.6,6.5h0l1.8-6.5h3.4v10.1h-2.2L97.9,66.9 M101.2,74.9h2.4V64.8h-2.4L101.2,74.9z
			 M108.6,66.7L108.6,66.7l-1.2,4.2h2.3L108.6,66.7z M110.1,72.6h-3.2l-0.7,2.3H104l3.4-10.1h2.6l3.3,10.1h-2.4L110.1,72.6
			L110.1,72.6z M121.8,66.9L121.8,66.9l-2.3,8h-1.6l-2.2-8h0v8h-2.2V64.8h3.6l1.6,6.5h0l1.8-6.5h3.4v10.1h-2.2V66.9 M125.2,74.9h2.4
			V64.8h-2.4V74.9z"/>
		<path class="st2" d="M1.5,58.5h223.1v-1.3H1.5V58.5z"/>
		<path class="st4" d="M57.3,4.4l0.1,32.7c0,2.1,0,8.5-16.1,8.5l-1.5,0l-1.5,0c-16.1,0-16.1-6.4-16.1-8.5l0.1-32.7H0L0,42
			c0,10.4,29.2,11.2,38.2,11.2h3c9,0,38.2-0.8,38.2-11.2l0-37.6L57.3,4.4"/>
		<path class="st2" d="M59,37.1L59,6h18.8l0,36c0,6.8-18.8,9.6-36.6,9.6c0-0.9,0-3,0-4.3C50.1,47.2,59,45.3,59,37.1"/>
		<path class="st5" d="M20.5,37.1l0-31.1H1.6l0,36c0,6.8,18.8,9.6,36.6,9.6c0-0.9,0-3,0-4.3C29.3,47.2,20.5,45.3,20.5,37.1"/>
	</g>
	<rect x="83.2" y="6" class="st6" width="143.4" height="52.2"/>
	<text transform="matrix(1 0 0 1 83.233 18.6135)"><tspan x="0" y="0" class="st7 st8 st9">Simulation and </tspan><tspan x="0" y="15" class="st7 st8 st9">Optimization</tspan><tspan x="0" y="30" class="st7 st8 st9">Research Laboratory</tspan></text>
	<text transform="matrix(0.9525 0 0 1 129.9982 74.8888)" class="st10 st11 st12">SIMLAB</text>
	<g class="st0">
		<g class="st1">
			<path class="st13" d="M156.3,64.7V73h3.2v1.9h-5.7V64.7H156.3z"/>
			<path class="st13" d="M166.5,73h-3.4l-0.5,1.9H160l3.4-10.2h2.8l3.4,10.2H167L166.5,73z M166,71.2l-0.9-3.1l-0.3-1.3l-0.3,1.3
				l-0.9,3.1H166z"/>
			<path class="st13" d="M171.3,64.7c0.2,0,0.5,0,0.9,0c0.6,0,1.1,0,1.4,0c1.3,0,2.2,0.2,2.8,0.7c0.6,0.4,0.9,1.1,0.9,1.9
				c0,0.5-0.1,1-0.4,1.4c-0.2,0.4-0.6,0.7-1.1,0.8c0.4,0,0.7,0.2,1,0.4c0.3,0.2,0.5,0.5,0.7,0.8c0.2,0.3,0.3,0.7,0.3,1.1
				c0,0.7-0.1,1.2-0.4,1.7s-0.7,0.8-1.3,1.1s-1.4,0.4-2.4,0.4c-0.7,0-1.5,0-2.5,0h-1.2V64.7H171.3z M174.6,68.5
				c0.3-0.2,0.4-0.6,0.4-1.1c0-0.4-0.1-0.7-0.4-0.8c-0.3-0.2-0.7-0.3-1.3-0.3c-0.1,0-0.3,0-0.5,0s-0.3,0-0.3,0v2.4
				c0.2,0,0.5,0.1,0.9,0.1C174,68.9,174.4,68.8,174.6,68.5z M174.9,72.9c0.3-0.2,0.4-0.6,0.4-1.1c0-0.4-0.1-0.8-0.4-1
				c-0.3-0.2-0.7-0.3-1.3-0.3c-0.2,0-0.4,0-0.7,0s-0.4,0-0.4,0v2.6c0.1,0.1,0.2,0.1,0.5,0.1s0.5,0,0.7,0
				C174.2,73.3,174.7,73.2,174.9,72.9z"/>
		</g>
		<polyline class="st14" points="150.5,66.9 150.5,66.9 148.2,74.9 146.6,74.9 144.4,66.9 144.4,66.9 144.4,74.9 142.2,74.9 
			142.2,64.8 145.8,64.8 147.4,71.3 147.5,71.3 149.2,64.8 152.7,64.8 152.7,74.9 150.5,74.9 150.5,66.9 		"/>
		<path class="st14" d="M137.4,66.8c-0.6-0.3-1.4-0.5-2-0.5c-0.8,0-1.4,0.3-1.4,1.1c0,1.8,4,1,4,4.6c0,1.9-1.5,3.1-3.5,3.1
			c-1.2,0-2.3-0.3-2.7-0.4l0.1-2c0.7,0.3,1.3,0.6,2.2,0.6c0.8,0,1.5-0.4,1.5-1.2c0-2-4-1-4-4.6c0-0.3,0.1-2.9,3.5-2.9
			c0.9,0,1.5,0.2,2.4,0.3L137.4,66.8"/>
		<rect x="138.6" y="64.7" class="st14" width="2.4" height="10.1"/>
	</g>
</g>
</svg>
