<?xml version="1.0" encoding="utf-8"?>
<!-- Generator: Adobe Illustrator 25.0.1, SVG Export Plug-In . SVG Version: 6.00 Build 0)  -->
<svg version="1.1" id="Layer_1" xmlns="http://www.w3.org/2000/svg" xmlns:xlink="http://www.w3.org/1999/xlink" x="0px" y="0px"
	 viewBox="0 0 250 80" style="enable-background:new 0 0 250 80;" xml:space="preserve">
<style type="text/css">
	.st0{fill-rule:evenodd;clip-rule:evenodd;fill:#005030;}
	.st1{fill-rule:evenodd;clip-rule:evenodd;fill:#FFFFFF;}
	.st2{fill-rule:evenodd;clip-rule:evenodd;fill:#F47321;}
	.st3{fill:none;}
	.st4{enable-background:new    ;}
	.st5{fill:#005030;}
	.st6{display:none;fill:#005030;enable-background:new    ;}
	.st7{font-family:'MerriweatherSans-ExtraBold';}
	.st8{font-size:13.6905px;}
	.st9{display:none;}
	.st10{display:inline;}
	.st11{display:inline;fill-rule:evenodd;clip-rule:evenodd;fill:#005030;}
	.st12{fill:#F47321;}
</style>
<g id="Layer_1_1_">
</g>
<g id="Layer_1_copy">
	<g>
		<path class="st0" d="M1.5,60.5h223.1v-1.3H1.5V60.5z"/>
		<path class="st1" d="M57.3,6.4l0.1,32.7c0,2.1,0,8.5-16.1,8.5h-1.5h-1.5c-16.1,0-16.1-6.4-16.1-8.5l0.1-32.7H0V44
			c0,10.4,29.2,11.2,38.2,11.2h3c9,0,38.2-0.8,38.2-11.2V6.4H57.3"/>
		<path class="st0" d="M59,39.1V8h18.8v36c0,6.8-18.8,9.6-36.6,9.6c0-0.9,0-3,0-4.3C50.1,49.2,59,47.3,59,39.1"/>
		<path class="st2" d="M20.5,39.1V8H1.6v36c0,6.8,18.8,9.6,36.6,9.6c0-0.9,0-3,0-4.3C29.3,49.2,20.5,47.3,20.5,39.1"/>
	</g>
	<rect x="83.2" y="6" class="st3" width="143.4" height="52.2"/>
	<g class="st4">
		<path class="st5" d="M89.5,15.4c0,2.1-1.6,3.5-3.9,3.5c-0.9,0-1.9-0.2-2.4-0.5c-0.2-0.2-0.3-0.5-0.3-1.4c0-0.5,0-1.2,0.1-1.6
			c0-0.2,0.1-0.3,0.3-0.3c0.2,0,0.3,0.2,0.3,0.5c0.4,1.8,1.1,2.8,2.3,2.8c1.1,0,2-1,2-2.2c0-1.3-0.9-2.1-1.9-2.7
			c-0.3-0.1-0.5-0.3-0.8-0.5c-1.1-0.7-2.1-1.5-2.1-3.1c0-1.7,1.7-2.9,3.4-2.9c0.8,0,1.8,0.3,2.2,0.5c0.2,0.1,0.2,0.2,0.2,0.6
			c0,0.3,0,0.7,0,1.2c0,0.8,0,0.9-0.3,0.9s-0.3-0.3-0.4-0.7c-0.4-1.3-1-2-1.9-2s-1.6,0.7-1.6,1.6c0,1.5,1.3,2.2,2.6,2.9
			C88.3,12.8,89.5,13.6,89.5,15.4L89.5,15.4z"/>
		<path class="st5" d="M91.4,12.5c0-0.6-0.1-0.7-0.7-0.8c-0.2,0-0.3-0.1-0.3-0.2c0-0.2,0.2-0.2,0.6-0.4c0.6-0.2,1.1-0.4,1.5-0.6
			c0.2-0.1,0.3-0.2,0.4-0.2s0.1,0.1,0.1,0.3v0.8v5.8c0,0.6,0,0.9,0.6,1c0.3,0.1,0.5,0.1,0.5,0.3c0,0.2-0.1,0.2-0.3,0.2
			c-0.4,0-0.8-0.1-1.6-0.1c-0.9,0-1.2,0.1-1.6,0.1c-0.1,0-0.3-0.1-0.3-0.2c0-0.2,0.1-0.2,0.4-0.3c0.6-0.1,0.7-0.2,0.7-0.9
			C91.4,17.3,91.4,12.5,91.4,12.5z M92.2,9.1c-0.5,0-0.9-0.4-0.9-1.1c0-0.7,0.4-1.1,0.9-1.1s0.9,0.4,0.9,1.1
			C93.1,8.8,92.7,9.1,92.2,9.1L92.2,9.1z"/>
		<path class="st5" d="M95.6,12.5c0-0.6-0.1-0.7-0.5-0.7c-0.3,0-0.4,0-0.4-0.2s0.2-0.2,0.6-0.3c0.6-0.3,1.1-0.5,1.4-0.8
			c0.2-0.1,0.3-0.2,0.3-0.2c0.1,0,0.1,0.1,0.1,0.3v0.6c0,0.4,0,0.5,0.1,0.5s0.5-0.3,0.8-0.6c0.4-0.3,0.9-0.6,1.5-0.6
			c1.2,0,1.5,0.8,1.8,1.1c0.1,0.1,0.1,0.2,0.2,0.2s0.1-0.1,0.2-0.1c0.4-0.3,1.2-1.2,2.3-1.2c0.6,0,1.1,0.2,1.4,0.5
			c0.4,0.4,0.6,0.9,0.6,1.6v4.8c0,0.6,0.1,0.8,0.6,0.9c0.3,0.1,0.4,0.1,0.4,0.3c0,0.2-0.1,0.2-0.3,0.2c-0.4,0-0.9-0.1-1.5-0.1
			s-1.1,0.1-1.5,0.1c-0.2,0-0.3,0-0.3-0.2c0-0.1,0.2-0.2,0.3-0.3c0.6-0.1,0.8-0.3,0.8-1V13c0-1-0.5-1.5-1.4-1.5
			c-0.4,0-0.8,0.1-1.1,0.4c-0.3,0.3-0.4,0.6-0.4,1v4.7c0,0.5,0.1,0.6,0.6,0.7c0.2,0,0.3,0.1,0.3,0.3c0,0.2-0.2,0.2-0.4,0.2
			c-0.3,0-0.8-0.1-1.4-0.1s-1,0.1-1.4,0.1c-0.2,0-0.3-0.1-0.3-0.2s0.1-0.2,0.3-0.3c0.6-0.1,0.7-0.2,0.7-1V13c0-0.5-0.1-0.9-0.2-1.2
			c-0.2-0.4-0.6-0.6-1-0.6s-0.9,0.2-1.2,0.5c-0.3,0.3-0.5,0.7-0.5,1.2v4.5c0,0.5,0.1,0.7,0.5,0.8c0.3,0.1,0.4,0.1,0.4,0.3
			c0,0.2-0.1,0.2-0.3,0.2c-0.2,0-0.5-0.1-1.5-0.1c-0.8,0-1,0.1-1.3,0.1s-0.3-0.1-0.3-0.2c0-0.2,0.1-0.3,0.3-0.3
			c0.6-0.1,0.7-0.3,0.7-1C95.6,17.2,95.6,12.5,95.6,12.5z"/>
		<path class="st5" d="M110.1,16.3c0,0.9,0.4,1.5,1.4,1.5c0.5,0,1-0.2,1.4-0.6c0.2-0.3,0.3-0.5,0.3-0.9v-4.5c0-0.6-0.1-0.8-0.5-0.8
			c-0.4-0.1-0.5,0-0.5-0.3c0-0.2,0.1-0.3,0.4-0.3s0.6,0,0.9,0s0.7,0,1,0c0.2,0,0.3,0.1,0.3,0.4v0.7v5.3c0,0.6,0.1,0.8,0.5,0.8
			c0.3,0,0.5,0.1,0.5,0.2s-0.1,0.2-0.6,0.3c-0.7,0.3-1.3,0.5-1.5,0.6c-0.1,0-0.2,0.1-0.3,0.1c-0.1,0-0.1-0.1-0.1-0.2v-0.8
			c0-0.2-0.1-0.3-0.1-0.3c-0.1,0-0.2,0.1-0.3,0.1c-0.4,0.3-1.1,1-2.2,1c-0.6,0-1.2-0.2-1.6-0.5c-0.4-0.4-0.6-1-0.6-1.7v-4.9
			c0-0.5-0.1-0.6-0.5-0.7c-0.3,0-0.5-0.1-0.5-0.3c0-0.1,0.1-0.3,0.3-0.3c0.3,0,0.7,0,1.1,0c0.3,0,0.6,0,0.8,0c0.3,0,0.3,0.2,0.3,0.6
			L110.1,16.3L110.1,16.3z"/>
		<path class="st5" d="M117.5,7.9c0-0.5-0.1-0.6-0.6-0.7c-0.3-0.1-0.4-0.1-0.4-0.3c0-0.1,0.1-0.2,0.4-0.3c0.7-0.2,1.2-0.4,1.6-0.6
			c0.2-0.1,0.4-0.2,0.4-0.2c0.1,0,0.1,0.1,0.1,0.4v11.1c0,0.5,0.1,0.6,0.8,0.8c0.2,0.1,0.4,0.1,0.4,0.3c0,0.2-0.1,0.2-0.3,0.2
			s-0.5-0.1-1.6-0.1c-1,0-1.3,0.1-1.6,0.1c-0.1,0-0.3-0.1-0.3-0.2c0-0.2,0.2-0.3,0.4-0.3c0.6-0.1,0.7-0.3,0.7-0.9L117.5,7.9
			L117.5,7.9z"/>
		<path class="st5" d="M125.2,12c0-0.8-0.2-1.2-0.8-1.2c-0.9,0-1.3,0.6-1.5,1.5c-0.1,0.4-0.3,0.7-0.6,0.9c-0.2,0.1-0.5,0.3-0.7,0.3
			c-0.3,0-0.5-0.1-0.5-0.5c0-1,1.5-2.7,3.8-2.7c0.7,0,1.2,0.1,1.5,0.4c0.3,0.2,0.4,0.6,0.4,1.1v5.1c0,0.5,0.1,0.8,0.5,0.8
			c0.3,0,0.5-0.2,0.5-0.3c0.1-0.2,0.1-0.3,0.3-0.3c0.1,0,0.1,0.1,0.1,0.3c0,0.4-0.6,1.5-1.7,1.5c-0.8,0-1-0.6-1.1-1
			c-0.1-0.1-0.1-0.3-0.2-0.3c-0.1,0-0.4,0.3-0.9,0.7c-0.4,0.3-1,0.6-1.7,0.6c-0.8,0-1.5-0.6-1.5-1.6s0.7-1.6,2.1-2.5
			c0.6-0.4,1-0.6,1.3-0.8c0.5-0.3,0.6-0.5,0.6-0.9L125.2,12L125.2,12z M122.7,16.9c0,0.7,0.4,1,0.9,1c0.4,0,0.8-0.2,1.1-0.6
			c0.3-0.3,0.4-0.6,0.4-1v-1.8c0-0.2,0-0.3-0.1-0.3s-0.2,0-0.4,0.2c-0.4,0.3-0.7,0.5-1,0.8C123.1,15.7,122.7,16.2,122.7,16.9
			L122.7,16.9z"/>
		<path class="st5" d="M130.9,16.9c0,0.7,0.2,1,0.6,1c0.3,0,0.6-0.2,0.7-0.5c0.2-0.2,0.3-0.4,0.4-0.4c0.1,0,0.2,0.1,0.2,0.2
			c0,0.3-0.5,1.7-1.9,1.7c-0.5,0-0.9-0.1-1.2-0.4s-0.4-0.8-0.4-1.4v-5.5c0-0.2-0.1-0.3-0.2-0.3c-0.1,0-0.3,0-0.4,0
			c-0.2,0-0.3,0-0.3-0.2c0-0.1,0.1-0.3,0.3-0.5c0.6-0.4,1-0.9,1.6-2c0.2-0.3,0.2-0.4,0.3-0.4s0.2,0.1,0.2,0.4v1.7
			c0,0.3,0.1,0.4,0.4,0.4h1c0.3,0,0.4,0.1,0.4,0.3c0,0.3-0.1,0.4-0.4,0.4c-0.3,0-0.6,0-0.9,0c-0.3,0-0.4,0.1-0.4,0.4L130.9,16.9
			L130.9,16.9z"/>
		<path class="st5" d="M134.3,12.5c0-0.6-0.1-0.7-0.7-0.8c-0.2,0-0.3-0.1-0.3-0.2c0-0.2,0.2-0.2,0.6-0.4c0.6-0.2,1.1-0.4,1.5-0.6
			c0.2-0.1,0.3-0.2,0.4-0.2c0.1,0,0.1,0.1,0.1,0.3v0.8v5.8c0,0.6,0,0.9,0.6,1c0.3,0.1,0.5,0.1,0.5,0.3c0,0.2-0.1,0.2-0.3,0.2
			c-0.4,0-0.8-0.1-1.6-0.1c-0.9,0-1.2,0.1-1.6,0.1c-0.1,0-0.3-0.1-0.3-0.2c0-0.2,0.1-0.2,0.4-0.3c0.6-0.1,0.7-0.2,0.7-0.9
			L134.3,12.5L134.3,12.5z M135,9.1c-0.5,0-0.9-0.4-0.9-1.1c0-0.7,0.4-1.1,0.9-1.1s0.9,0.4,0.9,1.1C135.9,8.8,135.5,9.1,135,9.1
			L135,9.1z"/>
		<path class="st5" d="M141.1,18.8c-2.1,0-3.5-1.9-3.5-4.3c0-2.3,1.4-4.3,3.5-4.3c2.2,0,3.5,2,3.5,4.3
			C144.7,16.9,143.3,18.8,141.1,18.8L141.1,18.8z M141.2,18.3c1.2,0,1.8-1.9,1.8-3.6c0-2-0.6-4-1.9-4c-1.2,0-1.8,1.8-1.8,3.6
			C139.3,16.4,139.9,18.3,141.2,18.3L141.2,18.3z"/>
		<path class="st5" d="M146.4,12.5c0-0.6-0.1-0.7-0.5-0.7c-0.3,0-0.4-0.1-0.4-0.2c0-0.2,0.2-0.2,0.6-0.3c0.6-0.2,1.2-0.5,1.4-0.7
			c0.2-0.1,0.3-0.2,0.3-0.2c0.1,0,0.1,0.1,0.1,0.3v0.7c0,0.3,0,0.3,0.1,0.3c0.2,0,0.5-0.3,0.8-0.6c0.4-0.3,1-0.6,1.6-0.6
			s1.2,0.2,1.6,0.6c0.4,0.4,0.6,1,0.6,1.7v4.6c0,0.6,0.2,0.8,0.6,0.9c0.3,0,0.5,0.1,0.5,0.3c0,0.2-0.1,0.2-0.3,0.2s-0.7-0.1-1.5-0.1
			s-1.1,0.1-1.4,0.1c-0.2,0-0.3-0.1-0.3-0.2s0.1-0.2,0.3-0.2c0.5-0.1,0.6-0.2,0.6-0.7v-4.6c0-0.4-0.1-0.8-0.3-1.1
			c-0.3-0.3-0.6-0.5-1.1-0.5s-0.9,0.2-1.3,0.5c-0.3,0.3-0.5,0.7-0.5,1.1v4.6c0,0.5,0.1,0.6,0.5,0.7s0.5,0.1,0.5,0.2
			c0,0.2-0.1,0.2-0.3,0.2s-0.5-0.1-1.6-0.1c-0.9,0-1.1,0.1-1.4,0.1c-0.2,0-0.3-0.1-0.3-0.2s0.1-0.3,0.3-0.3c0.6-0.1,0.7-0.3,0.7-1
			L146.4,12.5L146.4,12.5z"/>
		<path class="st5" d="M162.7,12c0-0.8-0.2-1.2-0.8-1.2c-0.9,0-1.3,0.6-1.5,1.5c-0.1,0.4-0.3,0.7-0.6,0.9c-0.2,0.1-0.5,0.3-0.7,0.3
			c-0.3,0-0.5-0.1-0.5-0.5c0-1,1.5-2.7,3.8-2.7c0.7,0,1.2,0.1,1.5,0.4c0.3,0.2,0.4,0.6,0.4,1.1v5.1c0,0.5,0.1,0.8,0.5,0.8
			c0.3,0,0.5-0.2,0.5-0.3c0.1-0.2,0.1-0.3,0.3-0.3s0.1,0.1,0.1,0.3c0,0.4-0.6,1.5-1.7,1.5c-0.8,0-1-0.6-1.1-1
			c-0.1-0.1-0.1-0.3-0.2-0.3c-0.1,0-0.4,0.3-0.9,0.7c-0.4,0.3-1,0.6-1.7,0.6c-0.8,0-1.5-0.6-1.5-1.6s0.7-1.6,2.1-2.5
			c0.6-0.4,1-0.6,1.3-0.8c0.5-0.3,0.6-0.5,0.6-0.9L162.7,12L162.7,12z M160.3,16.9c0,0.7,0.4,1,0.9,1c0.4,0,0.8-0.2,1.1-0.6
			c0.3-0.3,0.4-0.6,0.4-1v-1.8c0-0.2,0-0.3-0.1-0.3s-0.2,0-0.4,0.2c-0.4,0.3-0.7,0.5-1,0.8C160.6,15.7,160.3,16.2,160.3,16.9
			L160.3,16.9z"/>
		<path class="st5" d="M167,12.5c0-0.6-0.1-0.7-0.5-0.7c-0.3,0-0.4-0.1-0.4-0.2c0-0.2,0.2-0.2,0.6-0.3c0.6-0.2,1.2-0.5,1.4-0.7
			c0.2-0.1,0.3-0.2,0.3-0.2c0.1,0,0.1,0.1,0.1,0.3v0.7c0,0.3,0,0.3,0.1,0.3c0.2,0,0.5-0.3,0.8-0.6c0.4-0.3,1-0.6,1.6-0.6
			s1.2,0.2,1.6,0.6c0.4,0.4,0.6,1,0.6,1.7v4.6c0,0.6,0.2,0.8,0.6,0.9c0.3,0,0.5,0.1,0.5,0.3c0,0.2-0.1,0.2-0.3,0.2s-0.7-0.1-1.5-0.1
			s-1.1,0.1-1.4,0.1c-0.2,0-0.3-0.1-0.3-0.2s0.1-0.2,0.3-0.2c0.5-0.1,0.6-0.2,0.6-0.7v-4.6c0-0.4-0.1-0.8-0.3-1.1
			c-0.3-0.3-0.6-0.5-1.1-0.5s-0.9,0.2-1.3,0.5c-0.3,0.3-0.5,0.7-0.5,1.1v4.6c0,0.5,0.1,0.6,0.5,0.7s0.5,0.1,0.5,0.2
			c0,0.2-0.1,0.2-0.3,0.2s-0.5-0.1-1.6-0.1c-0.9,0-1.1,0.1-1.4,0.1c-0.2,0-0.3-0.1-0.3-0.2s0.1-0.3,0.3-0.3c0.6-0.1,0.7-0.3,0.7-1
			L167,12.5L167,12.5z"/>
		<path class="st5" d="M181.3,17.2c0,0.5,0,0.6,0.2,0.6c0.4,0,0.5-0.8,0.7-0.8c0.1,0,0.2,0.1,0.2,0.4c0,0.4,0,0.6-0.3,0.7
			c-0.1,0.1-0.5,0.2-0.8,0.3c-0.4,0.2-0.9,0.4-1.1,0.4c-0.2,0-0.2-0.1-0.3-0.4c-0.1-0.4-0.1-0.6-0.2-0.6c-0.1,0-0.3,0.2-0.6,0.5
			s-0.8,0.5-1.4,0.5c-1.9,0-2.9-1.7-2.9-4.2c0-2.4,1.4-4.4,3.2-4.4c0.5,0,0.9,0.1,1.2,0.3c0.2,0.1,0.3,0.2,0.3,0.2
			c0.1,0,0.1-0.1,0.1-0.2V7.8c0-0.4-0.1-0.5-0.6-0.6c-0.3-0.1-0.4-0.1-0.4-0.2s0.1-0.2,0.4-0.3c0.7-0.2,1.2-0.4,1.6-0.6
			C181,6,181.1,6,181.2,6c0.1,0,0.1,0.1,0.1,0.3V17.2z M176.6,14.4c0,2.3,0.6,3.5,1.9,3.5c0.3,0,0.7-0.1,1-0.3
			c0.2-0.2,0.4-0.4,0.4-0.8v-4.2c0-0.5-0.1-0.9-0.3-1.2c-0.3-0.3-0.6-0.5-1-0.5C177.6,10.9,176.6,11.8,176.6,14.4L176.6,14.4z"/>
	</g>
	<g class="st4">
		<path class="st5" d="M82.8,29.9c0-3.3,2.1-5.8,4.6-5.8c2.6,0,4.6,2.6,4.6,5.9s-2.1,5.9-4.6,5.9C84.9,35.9,82.8,33.2,82.8,29.9
			L82.8,29.9z M90,30.3c0-4.1-1.4-5.7-2.6-5.7s-2.5,1.4-2.5,5.1c0,4.1,1.4,5.7,2.7,5.7C88.6,35.4,90,34,90,30.3L90,30.3z"/>
		<path class="st5" d="M95.2,38.2c0,0.7,0.2,0.8,0.8,0.9c0.3,0.1,0.4,0.1,0.4,0.3c0,0.1-0.1,0.2-0.4,0.2c-0.4,0-0.8-0.1-1.5-0.1
			s-1.2,0.1-1.6,0.1c-0.3,0-0.4-0.1-0.4-0.2c0-0.2,0.1-0.2,0.3-0.3c0.7-0.1,0.8-0.2,0.8-1v-8.4c0-0.6-0.1-0.7-0.5-0.8
			c-0.3-0.1-0.5-0.1-0.5-0.2c0-0.2,0.1-0.2,0.4-0.3c0.6-0.3,1.2-0.5,1.5-0.8c0.2-0.1,0.3-0.2,0.4-0.2s0.1,0.1,0.1,0.3v0.7
			c0,0.1,0,0.2,0.1,0.2s0.3-0.2,0.5-0.4c0.4-0.3,0.9-0.6,1.4-0.6c1.6,0,2.9,1.7,2.9,4.3c0,2.3-1.3,4.2-3.2,4.2
			c-0.5,0-0.8-0.1-1.1-0.2c-0.2-0.1-0.3-0.2-0.4-0.2s-0.1,0.1-0.1,0.4L95.2,38.2L95.2,38.2z M98.5,31.7c0-2.1-0.7-3.4-1.8-3.4
			c-0.4,0-0.8,0.2-1.1,0.4c-0.2,0.2-0.4,0.5-0.4,0.8v4.3c0,0.5,0.1,0.9,0.4,1.2c0.2,0.2,0.6,0.3,0.9,0.3
			C97.6,35.3,98.5,34.2,98.5,31.7L98.5,31.7z"/>
		<path class="st5" d="M103.3,33.9c0,0.7,0.2,1,0.6,1c0.3,0,0.6-0.2,0.7-0.5c0.2-0.2,0.3-0.4,0.4-0.4s0.2,0.1,0.2,0.2
			c0,0.3-0.5,1.7-1.9,1.7c-0.5,0-0.9-0.1-1.2-0.4c-0.3-0.3-0.4-0.8-0.4-1.4v-5.5c0-0.2-0.1-0.3-0.2-0.3s-0.3,0-0.4,0
			c-0.2,0-0.3,0-0.3-0.2c0-0.1,0.1-0.3,0.3-0.5c0.6-0.4,1-0.9,1.6-2c0.2-0.3,0.2-0.4,0.3-0.4s0.2,0.1,0.2,0.4v1.7
			c0,0.3,0.1,0.4,0.4,0.4h1c0.3,0,0.4,0.1,0.4,0.3c0,0.3-0.1,0.4-0.4,0.4s-0.6,0-0.9,0s-0.4,0.1-0.4,0.4
			C103.3,28.8,103.3,33.9,103.3,33.9z"/>
		<path class="st5" d="M106.6,29.5c0-0.6-0.1-0.7-0.7-0.8c-0.2,0-0.3-0.1-0.3-0.2c0-0.2,0.2-0.2,0.6-0.4c0.6-0.2,1.1-0.4,1.5-0.6
			c0.2-0.1,0.3-0.2,0.4-0.2s0.1,0.1,0.1,0.3v0.8v5.8c0,0.6,0,0.9,0.6,1c0.3,0.1,0.5,0.1,0.5,0.3s-0.1,0.2-0.3,0.2
			c-0.4,0-0.8-0.1-1.6-0.1c-0.9,0-1.2,0.1-1.6,0.1c-0.1,0-0.3-0.1-0.3-0.2c0-0.2,0.1-0.2,0.4-0.3c0.6-0.1,0.7-0.2,0.7-0.9
			C106.6,34.3,106.6,29.5,106.6,29.5z M107.4,26.1c-0.5,0-0.9-0.4-0.9-1.1s0.4-1.1,0.9-1.1s0.9,0.4,0.9,1.1
			C108.3,25.8,107.9,26.1,107.4,26.1L107.4,26.1z"/>
		<path class="st5" d="M110.8,29.5c0-0.6-0.1-0.7-0.5-0.7c-0.3,0-0.4,0-0.4-0.2s0.2-0.2,0.6-0.3c0.6-0.3,1.1-0.5,1.4-0.8
			c0.2-0.1,0.3-0.2,0.3-0.2c0.1,0,0.1,0.1,0.1,0.3v0.6c0,0.4,0,0.5,0.1,0.5s0.5-0.3,0.8-0.6c0.4-0.3,0.9-0.6,1.5-0.6
			c1.2,0,1.5,0.8,1.8,1.1c0.1,0.1,0.1,0.2,0.2,0.2s0.1-0.1,0.2-0.1c0.4-0.3,1.2-1.2,2.3-1.2c0.6,0,1.1,0.2,1.4,0.5
			c0.4,0.4,0.6,0.9,0.6,1.6v4.8c0,0.6,0.1,0.8,0.6,0.9c0.3,0.1,0.4,0.1,0.4,0.3s-0.1,0.2-0.3,0.2c-0.4,0-0.9-0.1-1.5-0.1
			s-1.1,0.1-1.5,0.1c-0.2,0-0.3,0-0.3-0.2c0-0.1,0.2-0.2,0.3-0.3c0.6-0.1,0.8-0.3,0.8-1V30c0-1-0.5-1.5-1.4-1.5
			c-0.4,0-0.8,0.1-1.1,0.4c-0.3,0.3-0.5,0.6-0.5,1v4.7c0,0.5,0.1,0.6,0.6,0.7c0.2,0,0.3,0.1,0.3,0.3s-0.2,0.2-0.4,0.2
			c-0.3,0-0.8-0.1-1.4-0.1s-1,0.1-1.4,0.1c-0.2,0-0.3-0.1-0.3-0.2c0-0.1,0.1-0.2,0.3-0.3c0.6-0.1,0.7-0.2,0.7-1V30
			c0-0.5-0.1-0.9-0.2-1.2c-0.2-0.4-0.6-0.6-1-0.6s-0.9,0.2-1.2,0.5c-0.3,0.3-0.5,0.7-0.5,1.2v4.5c0,0.5,0.1,0.7,0.5,0.8
			c0.3,0.1,0.4,0.1,0.4,0.3s-0.1,0.2-0.3,0.2c-0.2,0-0.5-0.1-1.5-0.1c-0.8,0-1,0.1-1.3,0.1s-0.3-0.1-0.3-0.2c0-0.2,0.1-0.3,0.3-0.3
			c0.6-0.1,0.7-0.3,0.7-1v-4.7H110.8z"/>
		<path class="st5" d="M124,29.5c0-0.6-0.1-0.7-0.7-0.8c-0.2,0-0.3-0.1-0.3-0.2c0-0.2,0.2-0.2,0.6-0.4c0.6-0.2,1.1-0.4,1.5-0.6
			c0.2-0.1,0.3-0.2,0.4-0.2c0.1,0,0.1,0.1,0.1,0.3v0.8v5.8c0,0.6,0,0.9,0.6,1c0.3,0.1,0.5,0.1,0.5,0.3s-0.1,0.2-0.3,0.2
			c-0.4,0-0.8-0.1-1.6-0.1c-0.9,0-1.2,0.1-1.6,0.1c-0.1,0-0.3-0.1-0.3-0.2c0-0.2,0.1-0.2,0.4-0.3c0.6-0.1,0.7-0.2,0.7-0.9L124,29.5
			L124,29.5z M124.7,26.1c-0.5,0-0.9-0.4-0.9-1.1s0.4-1.1,0.9-1.1s0.9,0.4,0.9,1.1C125.6,25.8,125.3,26.1,124.7,26.1L124.7,26.1z"/>
		<path class="st5" d="M133,32.9c0.1,0,0.2,0.1,0.2,0.5s0,1.4,0,1.8c0,0.4-0.1,0.5-0.3,0.5c-0.8,0-1.7,0-2.8,0c-0.9,0-1.9,0-2.6,0
			c-0.1,0-0.2-0.1-0.2-0.2c0-0.2,0.1-0.3,0.3-0.6l3.5-6.1c0.2-0.3,0.3-0.4,0.3-0.6c0-0.1-0.1-0.1-0.5-0.1s-0.8,0-1.1,0
			c-0.7,0.1-1.1,0.3-1.4,0.9c-0.3,0.6-0.3,0.8-0.5,0.8c-0.1,0-0.2-0.1-0.2-0.3c0-0.3,0.3-1.7,0.4-2.1c0.1-0.3,0.2-0.5,0.3-0.5
			c0.2,0,0.2,0.1,0.3,0.3c0.1,0.2,0.2,0.3,0.5,0.3h2.1h1.9c0.3,0,0.3,0.1,0.3,0.2s-0.1,0.3-0.3,0.7l-3.5,6.1
			c-0.1,0.2-0.2,0.4-0.2,0.5s0.1,0.1,0.4,0.1c0.5,0,0.9,0,1.3,0c1.1-0.1,1.4-0.5,1.7-1.2C132.7,33.2,132.7,32.9,133,32.9L133,32.9z"
			/>
		<path class="st5" d="M138.2,29c0-0.8-0.2-1.2-0.8-1.2c-0.9,0-1.3,0.6-1.5,1.5c-0.1,0.4-0.3,0.7-0.6,0.9c-0.2,0.1-0.5,0.3-0.7,0.3
			c-0.3,0-0.5-0.1-0.5-0.5c0-1,1.5-2.7,3.8-2.7c0.7,0,1.2,0.1,1.5,0.4c0.3,0.2,0.4,0.6,0.4,1.1v5.1c0,0.5,0.1,0.8,0.5,0.8
			c0.3,0,0.5-0.2,0.5-0.3c0.1-0.2,0.1-0.3,0.3-0.3s0.1,0.1,0.1,0.3c0,0.4-0.6,1.5-1.7,1.5c-0.8,0-1-0.6-1.1-1
			c-0.1-0.1-0.1-0.3-0.2-0.3c-0.1,0-0.4,0.3-0.9,0.7c-0.4,0.3-1,0.6-1.7,0.6c-0.8,0-1.5-0.6-1.5-1.6s0.7-1.6,2.1-2.5
			c0.6-0.4,1-0.6,1.3-0.8c0.5-0.3,0.6-0.5,0.6-0.9L138.2,29L138.2,29z M135.8,33.9c0,0.7,0.4,1,0.9,1c0.4,0,0.8-0.2,1.1-0.6
			c0.3-0.3,0.4-0.6,0.4-1v-1.8c0-0.2,0-0.3-0.1-0.3s-0.2,0-0.4,0.2c-0.4,0.3-0.7,0.5-1,0.8C136.1,32.7,135.8,33.2,135.8,33.9
			L135.8,33.9z"/>
		<path class="st5" d="M144,33.9c0,0.7,0.2,1,0.6,1c0.3,0,0.6-0.2,0.7-0.5c0.2-0.2,0.3-0.4,0.4-0.4c0.1,0,0.2,0.1,0.2,0.2
			c0,0.3-0.5,1.7-1.9,1.7c-0.5,0-0.9-0.1-1.2-0.4c-0.3-0.3-0.4-0.8-0.4-1.4v-5.5c0-0.2-0.1-0.3-0.2-0.3c-0.1,0-0.3,0-0.4,0
			c-0.2,0-0.3,0-0.3-0.2c0-0.1,0.1-0.3,0.3-0.5c0.6-0.4,1-0.9,1.6-2c0.2-0.3,0.2-0.4,0.3-0.4s0.2,0.1,0.2,0.4v1.7
			c0,0.3,0.1,0.4,0.4,0.4h1c0.3,0,0.4,0.1,0.4,0.3c0,0.3-0.1,0.4-0.4,0.4c-0.3,0-0.6,0-0.9,0c-0.3,0-0.4,0.1-0.4,0.4L144,33.9
			L144,33.9z"/>
		<path class="st5" d="M147.3,29.5c0-0.6-0.1-0.7-0.7-0.8c-0.2,0-0.3-0.1-0.3-0.2c0-0.2,0.2-0.2,0.6-0.4c0.6-0.2,1.1-0.4,1.5-0.6
			c0.2-0.1,0.3-0.2,0.4-0.2c0.1,0,0.1,0.1,0.1,0.3v0.8v5.8c0,0.6,0,0.9,0.6,1c0.3,0.1,0.5,0.1,0.5,0.3s-0.1,0.2-0.3,0.2
			c-0.4,0-0.8-0.1-1.6-0.1c-0.9,0-1.2,0.1-1.6,0.1c-0.1,0-0.3-0.1-0.3-0.2c0-0.2,0.1-0.2,0.4-0.3c0.6-0.1,0.7-0.2,0.7-0.9
			L147.3,29.5L147.3,29.5z M148.1,26.1c-0.5,0-0.9-0.4-0.9-1.1s0.4-1.1,0.9-1.1s0.9,0.4,0.9,1.1C149,25.8,148.6,26.1,148.1,26.1
			L148.1,26.1z"/>
		<path class="st5" d="M154.2,35.8c-2.1,0-3.5-1.9-3.5-4.3c0-2.3,1.4-4.3,3.5-4.3c2.2,0,3.5,2,3.5,4.3
			C157.7,33.9,156.3,35.8,154.2,35.8L154.2,35.8z M154.3,35.3c1.2,0,1.8-1.9,1.8-3.6c0-2-0.6-4-1.9-4c-1.2,0-1.8,1.8-1.8,3.6
			C152.3,33.4,153,35.3,154.3,35.3L154.3,35.3z"/>
		<path class="st5" d="M159.4,29.5c0-0.6-0.1-0.7-0.5-0.7c-0.3,0-0.4-0.1-0.4-0.2c0-0.2,0.2-0.2,0.6-0.3c0.6-0.2,1.2-0.5,1.4-0.7
			c0.2-0.1,0.3-0.2,0.3-0.2c0.1,0,0.1,0.1,0.1,0.3v0.7c0,0.3,0,0.3,0.1,0.3c0.2,0,0.5-0.3,0.8-0.6c0.4-0.3,1-0.6,1.6-0.6
			s1.2,0.2,1.6,0.6c0.4,0.4,0.6,1,0.6,1.7v4.6c0,0.6,0.2,0.8,0.6,0.9c0.3,0,0.5,0.1,0.5,0.3s-0.1,0.2-0.3,0.2s-0.7-0.1-1.5-0.1
			s-1.1,0.1-1.4,0.1c-0.2,0-0.3-0.1-0.3-0.2c0-0.1,0.1-0.2,0.3-0.2c0.5-0.1,0.6-0.2,0.6-0.7v-4.6c0-0.4-0.1-0.8-0.3-1.1
			c-0.3-0.3-0.6-0.5-1.1-0.5s-0.9,0.2-1.3,0.5c-0.3,0.3-0.5,0.7-0.5,1.1v4.6c0,0.5,0.1,0.6,0.5,0.7c0.4,0.1,0.5,0.1,0.5,0.2
			c0,0.2-0.1,0.2-0.3,0.2s-0.5-0.1-1.6-0.1c-0.9,0-1.1,0.1-1.4,0.1c-0.2,0-0.3-0.1-0.3-0.2s0.1-0.3,0.3-0.3c0.6-0.1,0.7-0.3,0.7-1
			L159.4,29.5L159.4,29.5z"/>
	</g>
	<g class="st4">
		<path class="st5" d="M85.7,51.2c0,0.6,0.1,0.8,0.6,0.9c0.5,0.1,0.7,0.1,0.7,0.3s-0.1,0.2-0.4,0.2s-0.7-0.1-1.7-0.1
			c-1.1,0-1.4,0.1-1.8,0.1c-0.3,0-0.4,0-0.4-0.2s0.2-0.2,0.8-0.3c0.5-0.1,0.6-0.3,0.6-1v-8.2c0-0.7-0.1-1-0.6-1
			c-0.3-0.1-0.7,0-0.7-0.3c0-0.2,0.1-0.3,0.4-0.3c0.6,0,1.1,0.1,1.7,0.1c0.8,0,1.6-0.1,2.4-0.1c2.1,0,3.5,1.2,3.5,2.9
			c0,1-0.5,1.9-1.5,2.4c-0.5,0.3-0.9,0.3-1,0.4c0.1,0.1,0.4,0.2,0.6,0.6c0.7,1.4,1.1,2.5,1.5,3.3c0.3,0.6,0.6,1.1,1,1.2
			c0.3,0.1,0.7,0.1,0.7,0.3s-0.1,0.2-0.3,0.2c-0.3,0-0.6-0.1-1.1-0.1c-0.4,0-0.8,0.1-1.1,0.1c-0.3,0-0.4-0.3-0.7-1
			c-0.3-0.8-0.8-1.9-1.5-3.6c-0.3-0.7-0.5-0.8-1.2-0.8c-0.4,0-0.5,0.1-0.5,0.4V51.2z M85.7,46.4c0,0.3,0,0.3,0.6,0.3
			c1.3,0,2.6-0.8,2.6-2.5s-0.8-2.5-2.2-2.5c-0.9,0-1,0.2-1,0.8V46.4z"/>
		<path class="st5" d="M94.3,48.1c-0.4,0-0.5,0.1-0.5,0.4c0,1.9,0.9,3.3,2.3,3.3c0.8,0,1.4-0.4,1.6-1c0.2-0.3,0.2-0.5,0.4-0.5
			c0.1,0,0.2,0.1,0.2,0.3s-0.2,0.6-0.3,0.9c-0.4,0.8-1.3,1.3-2.3,1.3c-2.1,0-3.4-1.8-3.4-4.1c0-3,1.7-4.4,3.5-4.4
			c1.6,0,2.6,1.2,2.6,2.9c0,0.9,0,1-0.5,1h-3.6C94.3,48.2,94.3,48.1,94.3,48.1z M93.9,47.2c0,0.3,0.1,0.4,0.7,0.4
			c0.3,0,0.7,0,0.9-0.1c0.6-0.1,1-0.2,1.2-0.3s0.3-0.3,0.3-0.7c0-0.9-0.5-1.7-1.3-1.7C94.6,44.8,93.9,46,93.9,47.2L93.9,47.2z"/>
		<path class="st5" d="M99.2,46.6c0-1.5,1.3-2.3,2.9-2.3c0.6,0,1.2,0.1,1.6,0.3c0.1,0.1,0.1,0.2,0.1,0.4s0,0.4,0,0.6v0.5
			c0,0.3-0.1,0.5-0.2,0.5c-0.2,0-0.3-0.3-0.6-1c-0.2-0.5-0.5-0.8-1.1-0.8c-0.7,0-1.3,0.5-1.3,1.2c0,0.9,0.9,1.3,1.8,1.8
			s1.8,1.2,1.8,2.4c0,1.7-1.4,2.7-3.1,2.7c-0.5,0-1.1-0.1-1.4-0.2c-0.1,0-0.3-0.1-0.3-0.1c-0.1-0.1-0.2-0.1-0.2-0.5
			c0-0.3,0-0.6,0-1.1c0-0.7,0.1-0.9,0.2-0.9c0.3,0,0.3,0.3,0.5,1c0.3,0.7,0.7,1.3,1.4,1.3c0.8,0,1.4-0.5,1.4-1.3
			c0-1.1-0.8-1.5-1.7-2C100.2,48.5,99.2,47.9,99.2,46.6L99.2,46.6z"/>
		<path class="st5" d="M107.1,48.1c-0.4,0-0.5,0.1-0.5,0.4c0,1.9,0.9,3.3,2.3,3.3c0.8,0,1.4-0.4,1.6-1c0.2-0.3,0.2-0.5,0.4-0.5
			c0.1,0,0.2,0.1,0.2,0.3s-0.2,0.6-0.3,0.9c-0.4,0.8-1.3,1.3-2.3,1.3c-2.1,0-3.4-1.8-3.4-4.1c0-3,1.7-4.4,3.5-4.4
			c1.6,0,2.6,1.2,2.6,2.9c0,0.9,0,1-0.5,1h-3.6C107.1,48.2,107.1,48.1,107.1,48.1z M106.7,47.2c0,0.3,0.1,0.4,0.7,0.4
			c0.3,0,0.7,0,0.9-0.1c0.6-0.1,1-0.2,1.2-0.3s0.3-0.3,0.3-0.7c0-0.9-0.5-1.7-1.3-1.7C107.3,44.8,106.7,46,106.7,47.2L106.7,47.2z"
			/>
		<path class="st5" d="M116.3,46c0-0.8-0.2-1.2-0.8-1.2c-0.9,0-1.3,0.6-1.5,1.5c-0.1,0.4-0.3,0.7-0.6,0.9c-0.2,0.1-0.5,0.3-0.7,0.3
			c-0.3,0-0.5-0.1-0.5-0.5c0-1,1.5-2.7,3.8-2.7c0.7,0,1.2,0.1,1.5,0.4c0.3,0.2,0.4,0.6,0.4,1.1v5.1c0,0.5,0.1,0.8,0.5,0.8
			c0.3,0,0.5-0.2,0.5-0.3c0.1-0.2,0.1-0.3,0.3-0.3c0.1,0,0.1,0.1,0.1,0.3c0,0.4-0.6,1.5-1.7,1.5c-0.8,0-1-0.6-1.1-1
			c-0.1-0.1-0.1-0.3-0.2-0.3s-0.4,0.3-0.9,0.7c-0.4,0.3-1,0.6-1.7,0.6c-0.8,0-1.5-0.6-1.5-1.6s0.7-1.6,2.1-2.5
			c0.6-0.4,1-0.6,1.3-0.8c0.5-0.3,0.6-0.5,0.6-0.9L116.3,46L116.3,46z M113.8,50.9c0,0.7,0.4,1,0.9,1c0.4,0,0.8-0.2,1.1-0.6
			c0.3-0.3,0.4-0.6,0.4-1v-1.8c0-0.2,0-0.3-0.1-0.3s-0.2,0-0.4,0.2c-0.4,0.3-0.7,0.5-1,0.8C114.2,49.7,113.8,50.2,113.8,50.9
			L113.8,50.9z"/>
		<path class="st5" d="M120.6,46.7c0-0.7-0.2-0.8-0.6-0.8c-0.2,0-0.3,0-0.3-0.2s0.1-0.3,0.4-0.3c0.4-0.1,0.9-0.3,1.3-0.7
			c0.2-0.2,0.3-0.3,0.5-0.3c0.1,0,0.2,0.1,0.2,0.3s0,0.5,0,0.9c0,0.3,0,0.4,0.1,0.4s0.3-0.4,0.5-0.8c0.3-0.4,0.7-0.8,1.3-0.8
			c0.7,0,1.1,0.5,1.1,1.3c0,0.6-0.3,1.1-0.9,1.1c-0.5,0-0.6-0.3-0.7-0.6c-0.1-0.3-0.1-0.6-0.3-0.6c-0.3,0-0.6,0.4-0.8,0.8
			c-0.2,0.4-0.3,0.9-0.3,1.2V51c0,0.8,0.1,1.1,0.7,1.2c0.4,0.1,0.6,0.1,0.6,0.3s-0.1,0.2-0.4,0.2c-0.3,0-0.6-0.1-1.7-0.1
			c-0.9,0-1.2,0.1-1.5,0.1c-0.2,0-0.4-0.1-0.4-0.2c0-0.2,0.2-0.2,0.5-0.3c0.5-0.1,0.6-0.2,0.6-1L120.6,46.7L120.6,46.7z"/>
		<path class="st5" d="M125.4,48.8c0-2.6,1.7-4.6,3.9-4.6c0.5,0,1.1,0.1,1.5,0.3s0.4,0.3,0.4,0.7V46c0,0.2,0,0.4-0.1,0.6
			c0,0.3-0.2,0.4-0.4,0.4c-0.3,0-0.4-0.5-0.8-1.2c-0.3-0.6-0.5-0.9-1-0.9c-1,0-2,1.4-2,3.3c0,2.6,1,3.7,2.2,3.7
			c0.6,0,1.1-0.3,1.5-0.8c0.2-0.3,0.4-0.8,0.5-0.8s0.2,0.1,0.2,0.3c0,0.8-0.9,2.3-2.7,2.3C126.8,52.8,125.4,51.2,125.4,48.8
			L125.4,48.8z"/>
		<path class="st5" d="M133.1,41.9c0-0.5-0.1-0.6-0.6-0.7c-0.3-0.1-0.4-0.1-0.4-0.3s0.1-0.2,0.5-0.3c0.7-0.2,1.2-0.4,1.5-0.5
			c0.2-0.1,0.3-0.2,0.5-0.2c0.1,0,0.1,0.1,0.1,0.3v5.1c0,0.1,0,0.2,0.1,0.2s0.2-0.1,0.2-0.1c0.5-0.4,1.2-1.1,2.2-1.1
			c1.4,0,2.1,0.9,2.2,2.3v4.6c0,0.6,0.2,0.8,0.6,0.9c0.3,0,0.4,0.1,0.4,0.3s-0.1,0.2-0.3,0.2s-0.7-0.1-1.5-0.1
			c-0.9,0-1.2,0.1-1.4,0.1s-0.3-0.1-0.3-0.2s0.1-0.2,0.3-0.2c0.4-0.1,0.6-0.2,0.6-0.7v-4.6c0-0.5-0.1-0.8-0.3-1.1
			c-0.3-0.3-0.6-0.5-1.1-0.5s-0.9,0.2-1.3,0.5c-0.3,0.3-0.5,0.7-0.5,1.1v4.5c0,0.5,0.2,0.7,0.7,0.8c0.3,0.1,0.3,0.1,0.3,0.3
			s-0.1,0.2-0.3,0.2s-0.5-0.1-1.6-0.1c-0.9,0-1.2,0.1-1.5,0.1c-0.2,0-0.3-0.1-0.3-0.2c0-0.2,0.2-0.3,0.3-0.3c0.6-0.1,0.7-0.3,0.7-1
			v-9.3H133.1z"/>
		<path class="st5" d="M146.3,43c0-0.9-0.1-1.1-0.6-1.2c-0.5-0.1-0.7-0.1-0.7-0.3s0.1-0.3,0.4-0.3c0.5,0,0.9,0.1,1.9,0.1
			c0.8,0,1.4-0.1,1.7-0.1c0.2,0,0.4,0.1,0.4,0.2c0,0.3-0.3,0.2-0.7,0.3c-0.6,0.1-0.6,0.2-0.6,0.9v8.1c0,0.9,0.2,1.3,1.2,1.3
			c1.3,0,1.9-0.8,2.3-2c0.2-0.5,0.2-0.7,0.4-0.7s0.2,0.1,0.2,0.6c0,0.7,0,1.4-0.1,2c0,0.5-0.1,0.6-0.3,0.6c-1,0-1.7-0.1-4-0.1
			c-1.3,0-1.8,0.1-2.3,0.1c-0.3,0-0.4-0.1-0.4-0.3s0.2-0.3,0.6-0.3c0.6-0.1,0.7-0.3,0.7-0.9L146.3,43L146.3,43z"/>
		<path class="st5" d="M157,46c0-0.8-0.2-1.2-0.8-1.2c-0.9,0-1.3,0.6-1.5,1.5c-0.1,0.4-0.3,0.7-0.6,0.9c-0.2,0.1-0.5,0.3-0.7,0.3
			c-0.3,0-0.5-0.1-0.5-0.5c0-1,1.5-2.7,3.8-2.7c0.7,0,1.2,0.1,1.5,0.4c0.3,0.2,0.4,0.6,0.4,1.1v5.1c0,0.5,0.1,0.8,0.5,0.8
			c0.3,0,0.5-0.2,0.5-0.3c0.1-0.2,0.1-0.3,0.3-0.3c0.1,0,0.1,0.1,0.1,0.3c0,0.4-0.6,1.5-1.7,1.5c-0.8,0-1-0.6-1.1-1
			c-0.1-0.1-0.1-0.3-0.2-0.3c-0.1,0-0.4,0.3-0.9,0.7c-0.4,0.3-1,0.6-1.7,0.6c-0.8,0-1.5-0.6-1.5-1.6s0.7-1.6,2.1-2.5
			c0.6-0.4,1-0.6,1.3-0.8c0.5-0.3,0.6-0.5,0.6-0.9L157,46L157,46z M154.6,50.9c0,0.7,0.4,1,0.9,1c0.4,0,0.8-0.2,1.1-0.6
			c0.3-0.3,0.4-0.6,0.4-1v-1.8c0-0.2,0-0.3-0.1-0.3s-0.2,0-0.4,0.2c-0.4,0.3-0.7,0.5-1,0.8C154.9,49.7,154.6,50.2,154.6,50.9
			L154.6,50.9z"/>
		<path class="st5" d="M162.7,44.7c0,0.2,0,0.3,0.1,0.3s0.2-0.1,0.3-0.1c0.4-0.2,1-0.6,1.7-0.6c1.6,0,2.8,1.8,2.8,4
			c0,2.8-1.5,4.6-3.7,4.6c-0.6,0-1-0.2-1.3-0.4c-0.2-0.1-0.4-0.2-0.6-0.2c-0.2,0-0.3,0.2-0.4,0.3c-0.1,0.2-0.2,0.4-0.4,0.4
			c-0.1,0-0.2-0.1-0.2-0.3c0-0.1,0.1-0.4,0.1-0.6c0-0.3,0-0.7,0-1.6v-8.6c0-0.5-0.1-0.6-0.6-0.7c-0.3-0.1-0.4-0.1-0.4-0.3
			s0.1-0.2,0.5-0.3c0.8-0.2,1.2-0.4,1.5-0.5c0.2-0.1,0.3-0.2,0.4-0.2c0.1,0,0.1,0.1,0.1,0.3L162.7,44.7L162.7,44.7z M165.9,48.7
			c0-2.6-0.9-3.6-2.1-3.6c-0.4,0-0.8,0.2-1,0.5c-0.1,0.2-0.2,0.3-0.2,0.6v4.7c0,0.9,0.4,1.5,1.2,1.5C165.1,52.3,165.9,51,165.9,48.7
			L165.9,48.7z"/>
		<path class="st5" d="M172.1,52.8c-2.1,0-3.5-1.9-3.5-4.3c0-2.3,1.4-4.3,3.5-4.3c2.2,0,3.5,2,3.5,4.3
			C175.6,50.9,174.2,52.8,172.1,52.8L172.1,52.8z M172.1,52.3c1.2,0,1.8-1.9,1.8-3.6c0-2-0.6-4-1.9-4c-1.2,0-1.8,1.8-1.8,3.6
			C170.2,50.4,170.8,52.3,172.1,52.3L172.1,52.3z"/>
		<path class="st5" d="M177.4,46.7c0-0.7-0.2-0.8-0.6-0.8c-0.2,0-0.3,0-0.3-0.2s0.1-0.3,0.4-0.3c0.4-0.1,0.9-0.3,1.3-0.7
			c0.2-0.2,0.3-0.3,0.5-0.3c0.1,0,0.2,0.1,0.2,0.3s0,0.5,0,0.9c0,0.3,0,0.4,0.1,0.4s0.3-0.4,0.5-0.8c0.3-0.4,0.7-0.8,1.3-0.8
			c0.7,0,1.1,0.5,1.1,1.3c0,0.6-0.3,1.1-0.9,1.1c-0.5,0-0.6-0.3-0.7-0.6c-0.1-0.3-0.1-0.6-0.3-0.6c-0.3,0-0.6,0.4-0.8,0.8
			c-0.2,0.4-0.3,0.9-0.3,1.2V51c0,0.8,0.1,1.1,0.7,1.2c0.4,0.1,0.6,0.1,0.6,0.3s-0.1,0.2-0.4,0.2c-0.3,0-0.6-0.1-1.7-0.1
			c-0.9,0-1.2,0.1-1.5,0.1c-0.2,0-0.4-0.1-0.4-0.2c0-0.2,0.2-0.2,0.5-0.3c0.5-0.1,0.6-0.2,0.6-1L177.4,46.7L177.4,46.7z"/>
		<path class="st5" d="M186.6,46c0-0.8-0.2-1.2-0.8-1.2c-0.9,0-1.3,0.6-1.5,1.5c-0.1,0.4-0.3,0.7-0.6,0.9c-0.2,0.1-0.5,0.3-0.7,0.3
			c-0.3,0-0.5-0.1-0.5-0.5c0-1,1.5-2.7,3.8-2.7c0.7,0,1.2,0.1,1.5,0.4c0.3,0.2,0.4,0.6,0.4,1.1v5.1c0,0.5,0.1,0.8,0.5,0.8
			c0.3,0,0.5-0.2,0.5-0.3c0.1-0.2,0.1-0.3,0.3-0.3c0.1,0,0.1,0.1,0.1,0.3c0,0.4-0.6,1.5-1.7,1.5c-0.8,0-1-0.6-1.1-1
			c-0.1-0.1-0.1-0.3-0.2-0.3c-0.1,0-0.4,0.3-0.9,0.7c-0.4,0.3-1,0.6-1.7,0.6c-0.8,0-1.5-0.6-1.5-1.6s0.7-1.6,2.1-2.5
			c0.6-0.4,1-0.6,1.3-0.8c0.5-0.3,0.6-0.5,0.6-0.9L186.6,46L186.6,46z M184.1,50.9c0,0.7,0.4,1,0.9,1c0.4,0,0.8-0.2,1.1-0.6
			c0.3-0.3,0.4-0.6,0.4-1v-1.8c0-0.2,0-0.3-0.1-0.3s-0.2,0-0.4,0.2c-0.4,0.3-0.7,0.5-1,0.8C184.5,49.7,184.1,50.2,184.1,50.9
			L184.1,50.9z"/>
		<path class="st5" d="M192.3,50.9c0,0.7,0.2,1,0.6,1c0.3,0,0.6-0.2,0.7-0.5c0.2-0.2,0.3-0.4,0.4-0.4c0.1,0,0.2,0.1,0.2,0.2
			c0,0.3-0.5,1.7-1.9,1.7c-0.5,0-0.9-0.1-1.2-0.4c-0.3-0.3-0.4-0.8-0.4-1.4v-5.5c0-0.2-0.1-0.3-0.2-0.3c-0.1,0-0.3,0-0.4,0
			c-0.2,0-0.3,0-0.3-0.2c0-0.1,0.1-0.3,0.3-0.5c0.6-0.4,1-0.9,1.6-2c0.2-0.3,0.2-0.4,0.3-0.4s0.2,0.1,0.2,0.4v1.7
			c0,0.3,0.1,0.4,0.4,0.4h1c0.3,0,0.4,0.1,0.4,0.3c0,0.3-0.1,0.4-0.4,0.4c-0.3,0-0.6,0-0.9,0c-0.3,0-0.4,0.1-0.4,0.4L192.3,50.9
			L192.3,50.9z"/>
		<path class="st5" d="M198.2,52.8c-2.1,0-3.5-1.9-3.5-4.3c0-2.3,1.4-4.3,3.5-4.3c2.2,0,3.5,2,3.5,4.3
			C201.8,50.9,200.3,52.8,198.2,52.8L198.2,52.8z M198.3,52.3c1.2,0,1.8-1.9,1.8-3.6c0-2-0.6-4-1.9-4c-1.2,0-1.8,1.8-1.8,3.6
			C196.3,50.4,197,52.3,198.3,52.3L198.3,52.3z"/>
		<path class="st5" d="M203.6,46.7c0-0.7-0.2-0.8-0.6-0.8c-0.2,0-0.3,0-0.3-0.2s0.1-0.3,0.4-0.3c0.4-0.1,0.9-0.3,1.3-0.7
			c0.2-0.2,0.3-0.3,0.5-0.3c0.1,0,0.2,0.1,0.2,0.3s0,0.5,0,0.9c0,0.3,0,0.4,0.1,0.4s0.3-0.4,0.5-0.8c0.3-0.4,0.7-0.8,1.3-0.8
			c0.7,0,1.1,0.5,1.1,1.3c0,0.6-0.3,1.1-0.9,1.1c-0.5,0-0.6-0.3-0.7-0.6c-0.1-0.3-0.1-0.6-0.3-0.6c-0.3,0-0.6,0.4-0.8,0.8
			c-0.2,0.4-0.3,0.9-0.3,1.2V51c0,0.8,0.1,1.1,0.7,1.2c0.4,0.1,0.6,0.1,0.6,0.3s-0.1,0.2-0.4,0.2c-0.3,0-0.6-0.1-1.7-0.1
			c-0.9,0-1.2,0.1-1.5,0.1c-0.2,0-0.4-0.1-0.4-0.2c0-0.2,0.2-0.2,0.5-0.3c0.5-0.1,0.6-0.2,0.6-1L203.6,46.7L203.6,46.7z"/>
		<path class="st5" d="M209.3,55.6c0-0.5,0.3-0.7,0.7-0.7c0.3,0,0.6,0,0.8-0.1c0.1-0.1,0.3-0.5,0.5-0.9s0.3-0.9,0.3-1.1
			c0-0.4-0.1-0.6-0.3-1.3c-0.6-1.6-1.2-3.4-1.9-5.4c-0.3-0.9-0.5-1-0.7-1.1c-0.2,0-0.4-0.1-0.4-0.3c0-0.1,0.1-0.2,0.3-0.2
			c0.5,0,1,0.1,1.5,0.1s1-0.1,1.3-0.1c0.2,0,0.3,0.1,0.3,0.2c0,0.2-0.2,0.2-0.5,0.2c-0.3,0.1-0.4,0.2-0.4,0.4s0.1,0.5,0.3,1.2
			c0.4,1.2,1.2,3.6,1.3,3.6s1-2.7,1.3-3.7c0.2-0.8,0.3-1,0.3-1.1c0-0.3-0.2-0.4-0.6-0.5c-0.1,0-0.4,0-0.4-0.2s0.1-0.3,0.3-0.3
			s0.6,0.1,1.1,0.1c0.3,0,0.6-0.1,0.9-0.1c0.2,0,0.3,0.1,0.3,0.3c0,0.1-0.1,0.2-0.3,0.2c-0.3,0.1-0.5,0.4-0.8,1.3
			c-0.9,2.6-1.7,4.8-2.4,7c-0.3,0.9-0.5,1.6-0.6,2.2c-0.3,0.9-0.4,1.1-1.1,1.1C209.5,56.6,209.3,56.3,209.3,55.6L209.3,55.6z"/>
	</g>
	<text transform="matrix(0.9525 0 0 1 129.998 76.8887)" class="st6 st7 st8">SIMLAB</text>
	<g class="st9">
		<g class="st10">
			<path class="st5" d="M156.3,66.7V75h3.2v1.9h-5.7V66.7H156.3z"/>
			<path class="st5" d="M166.5,75h-3.4l-0.5,1.9H160l3.4-10.2h2.8l3.4,10.2H167L166.5,75z M166,73.2l-0.9-3.1l-0.3-1.3l-0.3,1.3
				l-0.9,3.1H166z"/>
			<path class="st5" d="M171.3,66.7c0.2,0,0.5,0,0.9,0c0.6,0,1.1,0,1.4,0c1.3,0,2.2,0.2,2.8,0.7c0.6,0.4,0.9,1.1,0.9,1.9
				c0,0.5-0.1,1-0.4,1.4c-0.2,0.4-0.6,0.7-1.1,0.8c0.4,0,0.7,0.2,1,0.4c0.3,0.2,0.5,0.5,0.7,0.8s0.3,0.7,0.3,1.1
				c0,0.7-0.1,1.2-0.4,1.7s-0.7,0.8-1.3,1.1s-1.4,0.4-2.4,0.4c-0.7,0-1.5,0-2.5,0H170V66.7H171.3z M174.6,70.5
				c0.3-0.2,0.4-0.6,0.4-1.1c0-0.4-0.1-0.7-0.4-0.8c-0.3-0.2-0.7-0.3-1.3-0.3c-0.1,0-0.3,0-0.5,0s-0.3,0-0.3,0v2.4
				c0.2,0,0.5,0.1,0.9,0.1C174,70.9,174.4,70.8,174.6,70.5z M174.9,74.9c0.3-0.2,0.4-0.6,0.4-1.1c0-0.4-0.1-0.8-0.4-1
				c-0.3-0.2-0.7-0.3-1.3-0.3c-0.2,0-0.4,0-0.7,0s-0.4,0-0.4,0v2.6c0.1,0.1,0.2,0.1,0.5,0.1s0.5,0,0.7,0
				C174.2,75.3,174.7,75.2,174.9,74.9z"/>
		</g>
		<polyline class="st11" points="150.5,68.9 150.5,68.9 148.2,76.9 146.6,76.9 144.4,68.9 144.4,68.9 144.4,76.9 142.2,76.9 
			142.2,66.8 145.8,66.8 147.4,73.3 147.5,73.3 149.2,66.8 152.7,66.8 152.7,76.9 150.5,76.9 150.5,68.9 		"/>
		<path class="st11" d="M137.4,68.8c-0.6-0.3-1.4-0.5-2-0.5c-0.8,0-1.4,0.3-1.4,1.1c0,1.8,4,1,4,4.6c0,1.9-1.5,3.1-3.5,3.1
			c-1.2,0-2.3-0.3-2.7-0.4l0.1-2c0.7,0.3,1.3,0.6,2.2,0.6c0.8,0,1.5-0.4,1.5-1.2c0-2-4-1-4-4.6c0-0.3,0.1-2.9,3.5-2.9
			c0.9,0,1.5,0.2,2.4,0.3L137.4,68.8"/>
		<rect x="138.6" y="66.7" class="st11" width="2.4" height="10.1"/>
	</g>
	<rect x="25" y="64.7" class="st3" width="176.4" height="18"/>
	<g class="st4">
		<path class="st12" d="M30.3,74.5c0,0.9,0.1,1.4,0.5,1.8c0.4,0.5,1.2,0.8,1.8,0.8c0.9,0,1.7-0.3,2.2-1c0.3-0.5,0.4-1.2,0.4-1.9V68
			c0-1.1-0.2-1.4-0.8-1.4c-0.3,0-0.5-0.1-0.5-0.3c0-0.2,0.1-0.3,0.4-0.3c0.3,0,0.6,0.1,1.2,0.1c0.7,0,1-0.1,1.3-0.1
			c0.2,0,0.3,0.1,0.3,0.3c0,0.2-0.3,0.2-0.6,0.3c-0.5,0.1-0.6,0.3-0.6,1.2v6.1c0,1-0.2,1.9-0.7,2.5c-0.7,0.9-1.7,1.2-2.9,1.2
			c-0.9,0-2-0.2-2.7-0.7s-1-1.3-1-2.4v-7.1c0-0.7-0.1-0.8-0.5-0.9s-0.6-0.1-0.6-0.3c0-0.2,0.2-0.2,0.4-0.2c0.5,0,1.1,0.1,1.7,0.1
			c0.8,0,1.3-0.1,1.7-0.1c0.3,0,0.5,0,0.5,0.3c0,0.2-0.2,0.2-0.6,0.3c-0.5,0.1-0.8,0.1-0.8,1.1v6.8H30.3z"/>
		<path class="st12" d="M39.4,67.5c0-0.7-0.1-0.9-0.6-0.9c-0.4-0.1-0.6-0.1-0.6-0.3c0-0.3,0.3-0.3,0.5-0.3c0.3,0,0.7,0.1,1.1,0.1
			s0.8-0.1,1.1-0.1s0.4,0.2,0.7,0.7c0.9,1.6,3,5.2,4.1,7c0.2,0.4,0.3,0.5,0.4,0.5c0.1,0,0.1-0.1,0.1-0.2v-6.2c0-0.9-0.2-1.2-0.7-1.2
			c-0.4-0.1-0.6-0.1-0.6-0.3c0-0.2,0.1-0.3,0.3-0.3c0.3,0,0.6,0.1,1.3,0.1c0.5,0,0.8-0.1,1.2-0.1c0.2,0,0.3,0.1,0.3,0.3
			c0,0.3-0.2,0.3-0.6,0.3c-0.5,0.1-0.6,0.3-0.6,1v9.7c0,0.4,0,0.5-0.4,0.5c-0.3,0-0.4-0.1-0.7-0.8c-0.1-0.2-0.3-0.5-0.4-0.7
			c-1.5-2.6-3.1-5.1-4.6-7.8c-0.2-0.3-0.3-0.6-0.4-0.6c-0.1,0-0.1,0.1-0.1,0.4V75c0,1.5,0.1,1.9,0.7,2c0.4,0.1,0.8,0,0.8,0.3
			c0,0.2-0.1,0.2-0.3,0.2c-0.3,0-0.5-0.1-1.4-0.1c-0.8,0-1.1,0.1-1.5,0.1c-0.1,0-0.3-0.1-0.3-0.2c0-0.2,0.5-0.3,0.7-0.3
			c0.5-0.1,0.6-0.4,0.6-1L39.4,67.5L39.4,67.5z"/>
		<path class="st12" d="M52.5,75.8c0,0.6,0.1,0.9,0.7,1c0.4,0.1,0.7,0.1,0.7,0.4c0,0.2-0.1,0.2-0.4,0.2c-0.3,0-0.5-0.1-1.8-0.1
			c-1.2,0-1.4,0.1-1.8,0.1c-0.2,0-0.4,0-0.4-0.3c0-0.2,0.3-0.3,0.7-0.3c0.6-0.1,0.6-0.2,0.6-0.9v-8.5c0-0.6-0.1-0.8-0.6-0.8
			c-0.5-0.1-0.7,0-0.7-0.3c0-0.2,0.1-0.3,0.4-0.3c0.5,0,1.1,0.1,1.8,0.1S53,66,53.5,66c0.2,0,0.4,0.1,0.4,0.3c0,0.2-0.2,0.2-0.8,0.3
			c-0.5,0.1-0.6,0.3-0.6,0.8C52.5,67.4,52.5,75.8,52.5,75.8z"/>
		<path class="st12" d="M58.8,66.3c0,0.2-0.2,0.2-0.7,0.3c-0.2,0-0.4,0.2-0.4,0.5c0,0.2,0.1,0.5,0.2,0.8l1.7,5.3
			c0.3,1,0.4,1.3,0.5,1.3s0.2-0.4,0.7-2.1l1.2-4.1c0.1-0.4,0.2-0.8,0.2-1.2s-0.2-0.5-0.5-0.5c-0.4,0-0.6-0.1-0.6-0.3
			s0.2-0.3,0.4-0.3c0.2,0,0.6,0.1,1.1,0.1c0.4,0,0.7-0.1,1-0.1c0.2,0,0.3,0.1,0.3,0.3c0,0.2-0.2,0.2-0.5,0.3
			c-0.3,0.1-0.4,0.5-0.7,1.4c-0.9,3-1.8,5.9-2.6,8.9c-0.1,0.4-0.2,0.7-0.6,0.7s-0.4-0.2-0.6-0.7c-0.6-2.2-1.9-6.3-2.9-9.5
			c-0.2-0.5-0.3-0.8-0.6-0.8c-0.4-0.1-0.5-0.2-0.5-0.3c0-0.2,0.2-0.3,0.3-0.3c0.4,0,0.9,0.1,1.6,0.1s1.3-0.1,1.7-0.1
			C58.7,66,58.8,66.1,58.8,66.3L58.8,66.3z"/>
		<path class="st12" d="M65.9,67.3c0-0.6-0.2-0.7-0.6-0.8c-0.4-0.1-0.6-0.1-0.6-0.3c0-0.2,0.1-0.3,0.5-0.3c0.6,0,1.5,0.1,3.1,0.1
			s2.8-0.1,3.6-0.1c0.4,0,0.4,0.1,0.4,0.7c0,0.8,0,1.5,0,1.9c0,0.3-0.1,0.4-0.2,0.4s-0.3-0.1-0.3-0.3c-0.1-0.2-0.2-0.4-0.2-0.6
			c-0.4-1.1-1-1.6-2.5-1.6c-0.5,0-0.8,0-1,0.1s-0.2,0.3-0.2,0.5v3.6c0,0.4,0.1,0.4,0.8,0.4c1.2,0,1.5-0.2,1.7-0.8
			c0.2-0.6,0.2-0.8,0.4-0.8c0.2,0,0.2,0.1,0.2,0.4c0,0.5-0.1,1-0.1,1.4c0,0.6,0.1,1.2,0.1,1.7c0,0.2-0.1,0.3-0.2,0.3
			c-0.2,0-0.2-0.2-0.4-0.6c-0.2-0.9-0.5-1.1-1.6-1.1c-0.9,0-1,0.1-1,0.4v3.7c0,0.9,0.5,1.2,1.6,1.2c1.7,0,2.2-0.6,2.6-2.1
			c0.1-0.5,0.2-0.7,0.4-0.7c0.1,0,0.2,0,0.2,0.1c0,0.2,0.1,0.6,0.1,1.4c0,0.5,0,0.9-0.1,1.2c0,0.5-0.2,0.5-0.5,0.5
			c-0.7,0-1.4,0-2.2,0c-0.7,0-1.5,0-2.1,0c-1,0-1.9,0.1-2.6,0.1c-0.4,0-0.5-0.1-0.5-0.3c0-0.2,0.2-0.2,0.5-0.3
			c0.7-0.1,0.8-0.3,0.8-1v-8.4L65.9,67.3L65.9,67.3z"/>
		<path class="st12" d="M77.4,75.9c0,0.6,0.1,0.8,0.7,0.9c0.5,0.1,0.7,0.1,0.7,0.3c0,0.2-0.1,0.2-0.4,0.2s-0.7-0.1-1.8-0.1
			c-1.1,0-1.5,0.1-1.9,0.1c-0.3,0-0.5,0-0.5-0.2s0.2-0.2,0.8-0.3c0.5-0.1,0.6-0.3,0.6-1v-8.2c0-0.7-0.1-1-0.6-1
			c-0.4-0.1-0.7,0-0.7-0.3c0-0.2,0.1-0.3,0.4-0.3c0.6,0,1.1,0.1,1.8,0.1c0.9,0,1.6-0.1,2.5-0.1c2.2,0,3.7,1.2,3.7,2.9
			c0,1-0.5,1.9-1.5,2.4c-0.6,0.3-0.9,0.3-1,0.4c0.1,0.1,0.4,0.2,0.6,0.6c0.7,1.4,1.1,2.5,1.6,3.3c0.3,0.6,0.6,1.1,1,1.2
			c0.3,0.1,0.7,0.1,0.7,0.3c0,0.2-0.1,0.2-0.4,0.2s-0.6-0.1-1.1-0.1c-0.4,0-0.8,0.1-1.1,0.1c-0.3,0-0.4-0.3-0.7-1
			c-0.4-0.8-0.8-1.9-1.5-3.6c-0.3-0.7-0.5-0.8-1.2-0.8c-0.4,0-0.5,0.1-0.5,0.4v3.6H77.4z M77.4,71.2c0,0.3,0,0.3,0.7,0.3
			c1.4,0,2.7-0.8,2.7-2.5s-0.8-2.5-2.3-2.5c-1,0-1.1,0.2-1.1,0.8C77.4,67.3,77.4,71.2,77.4,71.2z"/>
		<path class="st12" d="M92.1,74.1c0,2.1-1.7,3.5-4,3.5c-0.9,0-2-0.2-2.5-0.5c-0.2-0.2-0.3-0.5-0.3-1.4c0-0.5,0-1.2,0.1-1.6
			c0-0.2,0.1-0.3,0.3-0.3c0.2,0,0.3,0.2,0.4,0.5c0.4,1.8,1.2,2.8,2.4,2.8c1.2,0,2-1,2-2.2c0-1.3-0.9-2.1-2-2.7
			c-0.3-0.1-0.5-0.3-0.8-0.5c-1.1-0.7-2.2-1.5-2.2-3.1c0-1.7,1.7-2.9,3.5-2.9c0.9,0,1.9,0.3,2.3,0.5c0.2,0.1,0.2,0.2,0.2,0.6
			c0,0.3,0,0.7,0,1.2c0,0.8,0,0.9-0.3,0.9s-0.3-0.3-0.4-0.7c-0.4-1.3-1-2-2-2c-0.9,0-1.7,0.7-1.7,1.6c0,1.5,1.4,2.2,2.7,2.9
			C90.9,71.5,92.1,72.4,92.1,74.1L92.1,74.1z"/>
		<path class="st12" d="M97,75.8c0,0.6,0.1,0.9,0.7,1c0.4,0.1,0.7,0.1,0.7,0.4c0,0.2-0.1,0.2-0.4,0.2s-0.5-0.1-1.8-0.1
			c-1.2,0-1.4,0.1-1.8,0.1c-0.2,0-0.4,0-0.4-0.3c0-0.2,0.3-0.3,0.7-0.3c0.6-0.1,0.6-0.2,0.6-0.9v-8.5c0-0.6-0.1-0.8-0.6-0.8
			c-0.5-0.1-0.7,0-0.7-0.3c0-0.2,0.1-0.3,0.4-0.3c0.5,0,1.1,0.1,1.8,0.1c0.7,0,1.3-0.1,1.8-0.1c0.2,0,0.4,0.1,0.4,0.3
			c0,0.2-0.2,0.2-0.8,0.3c-0.5,0.1-0.6,0.3-0.6,0.8C97,67.4,97,75.8,97,75.8z"/>
		<path class="st12" d="M103.2,66.9c0-0.3-0.1-0.3-0.7-0.3c-1,0-1.5,0.7-1.9,1.5c-0.2,0.5-0.4,1-0.6,1s-0.2-0.1-0.2-0.4
			c0-0.1,0-0.3,0-0.5c0.1-0.6,0.2-1.4,0.4-2.1c0.1-0.4,0.2-0.7,0.4-0.7c0.2,0,0.2,0.1,0.3,0.3c0.1,0.2,0.2,0.3,0.5,0.3h5.5
			c0.6,0,0.8-0.1,1-0.3c0.1-0.2,0.2-0.3,0.4-0.3c0.2,0,0.2,0.2,0.2,0.5c0,0.2,0,0.4,0,0.6c0,0.5-0.1,1.3-0.1,1.9
			c0,0.5-0.1,0.7-0.3,0.7c-0.2,0-0.3-0.5-0.4-1c-0.2-0.8-0.5-1.5-1.5-1.5h-0.7c-0.4,0-0.4,0.1-0.4,0.3v8.9c0,0.7,0.2,0.9,0.6,1
			s0.8,0.1,0.8,0.3c0,0.2-0.2,0.3-0.4,0.3c-0.4,0-0.8-0.1-1.8-0.1c-1.2,0-1.6,0.1-1.9,0.1s-0.4-0.1-0.4-0.3c0-0.2,0.1-0.3,0.7-0.3
			s0.7-0.3,0.7-1.1v-8.8H103.2z"/>
		<path class="st12" d="M113,72.7c0-0.3-0.1-0.5-0.3-1c-0.7-1.4-1.4-2.9-2.1-4.3c-0.4-0.7-0.6-0.8-0.9-0.9c-0.2-0.1-0.4-0.1-0.4-0.3
			s0.2-0.3,0.4-0.3c0.4,0,0.9,0.1,1.6,0.1c0.9,0,1.5-0.1,1.8-0.1c0.2,0,0.4,0.1,0.4,0.3c0,0.3-0.2,0.2-0.5,0.3
			c-0.4,0.1-0.5,0.1-0.5,0.4c0,0.2,0.3,0.7,0.9,2c0.9,2,1.1,2.3,1.3,2.3c0.2,0,0.4-0.4,1.1-1.9c0.7-1.4,1-2.2,1-2.4
			c0-0.3-0.2-0.4-0.7-0.5c-0.2,0-0.4-0.1-0.4-0.2c0-0.2,0.2-0.3,0.4-0.3c0.4,0,0.8,0.1,1.3,0.1c0.6,0,0.8-0.1,1.2-0.1
			c0.2,0,0.3,0.1,0.3,0.3c0,0.3-0.2,0.3-0.4,0.3c-0.4,0.1-0.7,0.4-1.1,1.1c-0.7,1.4-1.3,2.6-1.9,3.8c-0.3,0.6-0.4,0.8-0.4,1.1V76
			c0,0.6,0.1,0.8,0.6,0.9c0.3,0.1,0.6,0.1,0.6,0.3c0,0.2-0.1,0.3-0.4,0.3c-0.4,0-0.9-0.1-1.6-0.1c-0.8,0-1.4,0.1-1.9,0.1
			c-0.3,0-0.4-0.1-0.4-0.3c0-0.2,0.2-0.3,0.7-0.3c0.6,0,0.7-0.2,0.7-0.9v-3.3H113z"/>
		<path class="st12" d="M124.3,71.6c0-3.3,2.2-5.8,4.8-5.8c2.7,0,4.8,2.6,4.8,5.9s-2.2,5.9-4.8,5.9S124.3,75,124.3,71.6L124.3,71.6z
			 M131.8,72c0-4.1-1.4-5.7-2.8-5.7s-2.6,1.4-2.6,5.1c0,4.1,1.4,5.7,2.8,5.7C130.4,77.1,131.8,75.7,131.8,72L131.8,72z"/>
		<path class="st12" d="M138.5,75.7c0,0.9,0.2,1.1,0.9,1.2c0.6,0.1,0.7,0.1,0.7,0.3s-0.1,0.3-0.4,0.3c-0.4,0-0.8-0.1-2-0.1
			c-1.1,0-1.4,0.1-1.9,0.1c-0.2,0-0.4,0-0.4-0.3c0-0.2,0.1-0.2,0.5-0.3c0.7-0.1,0.8-0.2,0.8-1v-8.3c0-0.7-0.1-0.9-0.6-1
			s-0.7-0.1-0.7-0.3c0-0.2,0.2-0.3,0.5-0.3c0.6,0,1.7,0.1,2.7,0.1c1.5,0,2.6-0.1,3.7-0.1c0.5,0,0.6,0.1,0.6,0.8c0,0.7,0,1.3,0,1.7
			c0,0.4-0.1,0.5-0.2,0.5c-0.3,0-0.3-0.4-0.7-1.2c-0.4-0.9-1.1-1.3-2.4-1.3c-0.8,0-1,0.1-1,0.5v3.7c0,0.3,0.1,0.4,0.7,0.4
			c1.2,0,1.5-0.2,1.7-0.8c0.2-0.6,0.2-0.8,0.4-0.8s0.2,0.1,0.2,0.4c0,0.4-0.1,0.8-0.1,1.5c0,0.5,0.1,1.2,0.1,1.7
			c0,0.3-0.1,0.3-0.2,0.3c-0.2,0-0.2-0.2-0.4-0.6c-0.2-0.9-0.5-1.1-1.6-1.1c-0.7,0-0.8,0-0.8,0.4v3.6L138.5,75.7L138.5,75.7z"/>
		<path class="st12" d="M156.5,77.1c0-0.2,0.2-0.3,0.7-0.3c0.6-0.1,0.6-0.3,0.6-1.1c0-1.9-0.1-5.5-0.2-7.4c0-0.3,0-0.4-0.1-0.4
			s-0.1,0.1-0.2,0.3c-0.4,0.9-0.9,2.7-2.4,7.1c-0.5,1.7-0.5,2-0.8,2c-0.2,0-0.3-0.1-0.5-0.9c-0.6-2.2-2.1-6.8-2.5-8.2
			c-0.1-0.2-0.1-0.3-0.2-0.3c-0.1,0-0.1,0.1-0.1,0.4c-0.1,1.7-0.2,4.6-0.2,6.2c0,1.2,0,2.3,0.6,2.3c0.3,0.1,0.8,0.1,0.8,0.3
			c0,0.1-0.1,0.3-0.4,0.3c-0.4,0-0.7-0.1-1.4-0.1s-1,0.1-1.3,0.1c-0.2,0-0.3,0-0.3-0.3s0.3-0.2,0.6-0.3c0.5-0.1,0.6-0.5,0.7-1.4
			c0.1-1.9,0.3-6.1,0.3-7.6c0-1,0-1.2-0.6-1.2c-0.3,0-0.6-0.1-0.6-0.3c0-0.3,0.2-0.3,0.5-0.3c0.4,0,0.9,0.1,1.3,0.1
			c0.3,0,0.8-0.1,1.1-0.1c0.2,0,0.3,0.1,0.4,0.3c0.7,2.2,1.4,4.4,2.1,6.6c0.2,0.5,0.3,0.9,0.4,0.9c0.1,0,0.2-0.3,0.4-0.8
			c0.7-2.2,1.4-4.4,2.1-6.6c0.1-0.3,0.2-0.5,0.4-0.5c0.3,0,0.8,0.1,1.1,0.1c0.4,0,0.9-0.1,1.3-0.1c0.2,0,0.4,0.1,0.4,0.3
			c0,0.2-0.2,0.3-0.8,0.3c-0.3,0-0.4,0.3-0.4,1.1c0,1.8,0.2,6,0.3,8.2c0,0.7,0.2,0.9,0.5,1c0.5,0.1,0.7,0.1,0.7,0.3
			s-0.2,0.2-0.4,0.2c-0.4,0-0.8-0.1-1.7-0.1c-0.7,0-1.4,0.1-1.8,0.1C156.7,77.4,156.5,77.3,156.5,77.1L156.5,77.1z"/>
		<path class="st12" d="M165.5,75.8c0,0.6,0.1,0.9,0.7,1c0.4,0.1,0.7,0.1,0.7,0.4c0,0.2-0.2,0.2-0.5,0.2s-0.5-0.1-1.8-0.1
			c-1.2,0-1.4,0.1-1.8,0.1c-0.2,0-0.4,0-0.4-0.3c0-0.2,0.3-0.3,0.7-0.3c0.6-0.1,0.6-0.2,0.6-0.9v-8.5c0-0.6-0.1-0.8-0.6-0.8
			c-0.5-0.1-0.7,0-0.7-0.3c0-0.2,0.2-0.3,0.4-0.3c0.5,0,1.1,0.1,1.8,0.1c0.8,0,1.3-0.1,1.8-0.1c0.2,0,0.4,0.1,0.4,0.3
			c0,0.2-0.2,0.2-0.8,0.3c-0.5,0.1-0.6,0.3-0.6,0.8v8.4C165.4,75.8,165.5,75.8,165.5,75.8z"/>
		<path class="st12" d="M170.6,73.4c-0.3,0-0.4,0-0.6,0.8c-0.4,1.4-0.5,1.8-0.5,2.1c0,0.3,0.2,0.5,0.7,0.6c0.3,0.1,0.6,0.1,0.6,0.3
			c0,0.2-0.1,0.2-0.4,0.2c-0.3,0-0.8-0.1-1.2-0.1c-0.5,0-1,0.1-1.2,0.1s-0.3-0.1-0.3-0.2c0-0.2,0.2-0.2,0.3-0.3
			c0.3-0.1,0.5-0.1,0.7-0.6c0.9-2.6,1.9-6.1,2.8-9.3c0.1-0.2,0.1-0.5,0.2-0.7c0.1-0.3,0.1-0.5,0.5-0.5s0.4,0.1,0.5,0.4
			c1,3.2,2.1,6.6,3.1,9.8c0.1,0.4,0.3,0.8,0.7,0.9c0.2,0.1,0.5,0.1,0.5,0.3c0,0.2-0.2,0.2-0.4,0.2c-0.5,0-1-0.1-1.5-0.1
			s-1.1,0.1-1.6,0.1c-0.3,0-0.4-0.1-0.4-0.2c0-0.2,0.2-0.3,0.5-0.3s0.6-0.1,0.6-0.5c0-0.2-0.3-0.9-0.6-2.2c-0.2-0.7-0.3-0.8-0.7-0.8
			C172.9,73.4,170.6,73.4,170.6,73.4z M172.6,72.9c0.3,0,0.4-0.1,0.4-0.2s0-0.2-0.1-0.4c-0.2-0.6-0.5-1.6-0.9-3
			c-0.1-0.3-0.2-0.5-0.3-0.5s-0.2,0.1-0.3,0.6c-0.4,1.3-0.6,2.2-0.8,2.7c-0.1,0.4-0.1,0.5-0.1,0.5c0,0.1,0,0.1,0.3,0.1h1.8
			L172.6,72.9L172.6,72.9z"/>
		<path class="st12" d="M185.2,77.1c0-0.2,0.2-0.3,0.7-0.3c0.6-0.1,0.6-0.3,0.6-1.1c0-1.9-0.1-5.5-0.2-7.4c0-0.3,0-0.4-0.1-0.4
			s-0.1,0.1-0.2,0.3c-0.4,0.9-0.9,2.7-2.4,7.1c-0.5,1.7-0.5,2-0.8,2c-0.2,0-0.3-0.1-0.5-0.9c-0.6-2.2-2.1-6.8-2.5-8.2
			c-0.1-0.2-0.1-0.3-0.2-0.3c-0.1,0-0.1,0.1-0.1,0.4c-0.1,1.7-0.2,4.6-0.2,6.2c0,1.2,0,2.3,0.6,2.3c0.3,0.1,0.8,0.1,0.8,0.3
			c0,0.1-0.1,0.3-0.4,0.3c-0.4,0-0.7-0.1-1.4-0.1s-1,0.1-1.3,0.1c-0.2,0-0.3,0-0.3-0.3s0.3-0.2,0.6-0.3c0.5-0.1,0.6-0.5,0.7-1.4
			c0.1-1.9,0.3-6.1,0.3-7.6c0-1,0-1.2-0.6-1.2c-0.3,0-0.6-0.1-0.6-0.3c0-0.3,0.2-0.3,0.5-0.3c0.4,0,0.9,0.1,1.3,0.1
			c0.3,0,0.8-0.1,1.1-0.1c0.2,0,0.3,0.1,0.4,0.3c0.7,2.2,1.4,4.4,2.1,6.6c0.2,0.5,0.3,0.9,0.4,0.9c0.1,0,0.2-0.3,0.4-0.8
			c0.7-2.2,1.4-4.4,2.1-6.6c0.1-0.3,0.2-0.5,0.4-0.5c0.3,0,0.8,0.1,1.1,0.1c0.4,0,0.9-0.1,1.3-0.1c0.2,0,0.4,0.1,0.4,0.3
			c0,0.2-0.2,0.3-0.8,0.3c-0.3,0-0.4,0.3-0.4,1.1c0,1.8,0.2,6,0.3,8.2c0,0.7,0.2,0.9,0.5,1c0.5,0.1,0.7,0.1,0.7,0.3
			s-0.2,0.2-0.4,0.2c-0.4,0-0.8-0.1-1.7-0.1c-0.7,0-1.4,0.1-1.8,0.1C185.4,77.4,185.2,77.3,185.2,77.1L185.2,77.1z"/>
		<path class="st12" d="M194.1,75.8c0,0.6,0.1,0.9,0.7,1c0.4,0.1,0.7,0.1,0.7,0.4c0,0.2-0.2,0.2-0.5,0.2s-0.5-0.1-1.8-0.1
			c-1.2,0-1.4,0.1-1.8,0.1c-0.2,0-0.4,0-0.4-0.3c0-0.2,0.3-0.3,0.7-0.3c0.6-0.1,0.6-0.2,0.6-0.9v-8.5c0-0.6-0.1-0.8-0.6-0.8
			c-0.5-0.1-0.7,0-0.7-0.3c0-0.2,0.1-0.3,0.4-0.3c0.5,0,1.1,0.1,1.8,0.1c0.8,0,1.3-0.1,1.8-0.1c0.2,0,0.4,0.1,0.4,0.3
			c0,0.2-0.2,0.2-0.8,0.3c-0.5,0.1-0.6,0.3-0.6,0.8v8.4C194,75.8,194.1,75.8,194.1,75.8z"/>
	</g>
</g>
</svg>
